<?xml version="1.0" encoding="UTF-8" standalone="no"?>
<!-- Created with Inkscape (http://www.inkscape.org/) -->

<svg
   width="148mm"
   height="210mm"
   viewBox="0 0 148 210"
   version="1.1"
   id="svg8"
   inkscape:version="1.1.2 (0a00cf5339, 2022-02-04)"
   sodipodi:docname="cover.svg"
   inkscape:export-filename="/home/masaki/Dropbox/DojinWorks/C97/images/cover.svg.png"
   inkscape:export-xdpi="96"
   inkscape:export-ydpi="96"
   xmlns:inkscape="http://www.inkscape.org/namespaces/inkscape"
   xmlns:sodipodi="http://sodipodi.sourceforge.net/DTD/sodipodi-0.dtd"
   xmlns:xlink="http://www.w3.org/1999/xlink"
   xmlns="http://www.w3.org/2000/svg"
   xmlns:svg="http://www.w3.org/2000/svg"
   xmlns:rdf="http://www.w3.org/1999/02/22-rdf-syntax-ns#"
   xmlns:cc="http://creativecommons.org/ns#"
   xmlns:dc="http://purl.org/dc/elements/1.1/">
  <defs
     id="defs2">
    <linearGradient
       id="linearGradient66075"
       inkscape:swatch="solid">
      <stop
         style="stop-color:#000000;stop-opacity:1;"
         offset="0"
         id="stop66073" />
    </linearGradient>
    <linearGradient
       id="linearGradient66047"
       inkscape:swatch="solid">
      <stop
         style="stop-color:#000000;stop-opacity:1;"
         offset="0"
         id="stop66045" />
    </linearGradient>
    <linearGradient
       id="linearGradient64499"
       inkscape:swatch="gradient">
      <stop
         style="stop-color:#000000;stop-opacity:1;"
         offset="0"
         id="stop64495" />
      <stop
         style="stop-color:#000000;stop-opacity:0;"
         offset="1"
         id="stop64497" />
    </linearGradient>
    <linearGradient
       id="linearGradient61455"
       inkscape:swatch="solid">
      <stop
         style="stop-color:#000000;stop-opacity:0;"
         offset="0"
         id="stop61453" />
    </linearGradient>
    <linearGradient
       inkscape:collect="always"
       id="linearGradient59899">
      <stop
         style="stop-color:#000000;stop-opacity:1;"
         offset="0"
         id="stop59895" />
      <stop
         style="stop-color:#000000;stop-opacity:0;"
         offset="1"
         id="stop59897" />
    </linearGradient>
    <linearGradient
       id="linearGradient57333"
       inkscape:swatch="solid">
      <stop
         style="stop-color:#000000;stop-opacity:1;"
         offset="0"
         id="stop57331" />
    </linearGradient>
    <rect
       x="52.051957"
       y="396.99291"
       width="467.71197"
       height="196.09401"
       id="rect39213" />
    <linearGradient
       inkscape:collect="always"
       xlink:href="#linearGradient59899"
       id="linearGradient59901"
       x1="13.626746"
       y1="179.80924"
       x2="134.98802"
       y2="179.80924"
       gradientUnits="userSpaceOnUse" />
  </defs>
  <sodipodi:namedview
     id="base"
     pagecolor="#ffffff"
     bordercolor="#666666"
     borderopacity="1.0"
     inkscape:pageopacity="0.0"
     inkscape:pageshadow="2"
     inkscape:zoom="2.8"
     inkscape:cx="229.46429"
     inkscape:cy="404.46429"
     inkscape:document-units="mm"
     inkscape:current-layer="g65"
     showgrid="false"
     inkscape:window-width="2748"
     inkscape:window-height="1696"
     inkscape:window-x="507"
     inkscape:window-y="256"
     inkscape:window-maximized="0"
     inkscape:snap-text-baseline="true"
     inkscape:pagecheckerboard="0" />
  <metadata
     id="metadata5">
    <rdf:RDF>
      <cc:Work
         rdf:about="">
        <dc:format>image/svg+xml</dc:format>
        <dc:type
           rdf:resource="http://purl.org/dc/dcmitype/StillImage" />
        <dc:title />
      </cc:Work>
    </rdf:RDF>
  </metadata>
  <g
     inkscape:label="Layer 1"
     inkscape:groupmode="layer"
     id="layer1"
     transform="translate(0,-87)">
    <g
       id="g41"
       transform="matrix(1.0232749,0,0,1.0440135,3.4624743,-8.2463444)">
      <g
         id="g53"
         transform="translate(0,4.0960318)">
        <g
           id="g65"
           transform="matrix(1.1313382,0,0,1.053636,-12.019803,-12.509843)">
          <g
             aria-label="いまさら
はじめる"
             transform="matrix(0.20410237,0,0,0.20573604,-6.7509837,105.24142)"
             id="flowRoot3713"
             style="font-size:73.2272px;font-family:UnPen;-inkscape-font-specification:'UnPen, Normal';text-align:center;letter-spacing:-8.51225px;word-spacing:0px;text-anchor:middle;stroke:#000000;stroke-width:1.86383;stroke-linejoin:round"
             inkscape:transform-center-x="-9.5377083"
             inkscape:transform-center-y="-5.0897918">
            <g
               id="path70565">
              <path
                 style="color:#000000;-inkscape-font-specification:'UnPen, Normal';fill:#000000;stroke:none;stroke-linejoin:miter;-inkscape-stroke:none;paint-order:stroke fill markers"
                 d="m 205.52344,85.28125 c -0.44823,0 -0.9217,0.09273 -1.54297,0.248047 a 0.93200818,0.93200818 0 0 0 -0.66992,0.740234 h 0.67578 a 0.93200818,0.93200818 0 0 0 -0.93164,0.933594 c 0,1.111704 0.41218,2.232314 1.13672,3.359375 a 0.93200818,0.93200818 0 0 0 0.0293,0.01172 c 0.70659,1.321117 1.26125,3.737483 1.47071,7.228515 a 0.93200818,0.93200818 0 0 0 0.002,0.01953 c 0.29073,3.561494 0.43555,7.235614 0.43555,11.019534 0,3.80768 0.44699,8.07212 1.33398,12.80273 0.8946,4.77123 2.35435,8.90363 4.39648,12.38281 a 0.93200818,0.93200818 0 0 0 0.0937,0.0391 c 1.53235,2.74355 3.0592,4.86393 4.63477,6.32421 1.61198,1.49403 3.32238,2.33399 5.08203,2.33399 0.78689,0 1.55397,-0.23016 2.07813,-0.78516 0.52415,-0.55499 0.7207,-1.31731 0.7207,-2.12304 0,-0.48975 -0.0375,-1.16108 -0.11133,-2.04883 v -0.006 c -0.072,-0.93683 -0.10742,-1.6233 -0.10742,-2.00977 0,-0.64341 0.47789,-2.24773 1.55273,-4.45117 1.07485,-2.20344 2.71008,-5.06619 4.89649,-8.56445 2.1999,-3.51984 3.85024,-6.23638 4.95898,-8.1582 0.55438,-0.96092 0.9723,-1.72195 1.26172,-2.30079 0.14471,-0.28942 0.2587,-0.53063 0.34375,-0.74609 0.085,-0.21546 0.16797,-0.34844 0.16797,-0.71289 0,-0.52983 -0.10141,-1.05906 -0.45898,-1.49609 -0.35758,-0.43704 -0.94354,-0.64454 -1.46289,-0.64454 -0.56887,0 -0.6818,0.20763 -0.8711,0.35743 -0.1893,0.14979 -0.37545,0.3284 -0.5918,0.55468 -0.43268,0.45258 -0.97504,1.09125 -1.65234,1.93555 -1.35459,1.6886 -3.23515,4.19502 -5.65625,7.5332 -2.40402,3.31464 -4.37793,5.79291 -5.88672,7.40821 -0.75439,0.80764 -1.3956,1.39786 -1.88476,1.75976 -0.48916,0.3619 -0.83467,0.44336 -0.81055,0.44336 -0.56963,0 -1.11548,-0.30912 -1.76953,-1.33008 -0.65352,-1.02012 -1.29089,-2.69634 -1.82617,-4.97851 -1.08436,-4.69889 -1.66221,-9.35591 -1.73438,-13.97461 -3.2e-4,-4.68359 -0.1094,-8.16638 -0.33398,-10.494142 -0.15552,-2.67193 -0.80832,-5.17717 -1.96094,-7.482422 -0.79138,-1.582756 -1.55141,-2.796545 -2.33984,-3.667969 -0.78843,-0.871423 -1.66181,-1.460937 -2.66797,-1.460937 z m 0,1.865234 c 0.2387,0 0.68422,0.179354 1.28711,0.845703 0.60288,0.66635 1.30634,1.759165 2.05273,3.251954 1.04099,2.081976 1.63173,4.329776 1.77149,6.77539 a 0.93200818,0.93200818 0 0 0 0.002,0.03711 c 0.21376,2.208849 0.32617,5.673719 0.32617,10.345699 a 0.93200818,0.93200818 0 0 0 0,0.0137 c 0.0743,4.7544 0.6688,9.54458 1.78125,14.36523 a 0.93200818,0.93200818 0 0 0 0,0.002 c 0.56286,2.40151 1.22515,4.24018 2.07227,5.5625 0.84711,1.32232 2.00556,2.1875 3.33984,2.1875 0.71978,0 1.28321,-0.33753 1.91992,-0.80859 0.63671,-0.47106 1.33699,-1.12806 2.13867,-1.98633 1.60337,-1.71654 3.60228,-4.23689 6.03125,-7.58594 2.41191,-3.3255 4.28336,-5.81769 5.60157,-7.46093 0.6591,-0.82162 1.18321,-1.43212 1.54687,-1.8125 0.0735,-0.0768 0.10294,-0.0973 0.16211,-0.1543 0.007,0.0488 0.01,0.0121 0.01,0.0937 0,-0.218 0.0151,-0.10502 -0.0371,0.0273 -0.0523,0.13237 -0.1455,0.33983 -0.27539,0.59961 -0.25979,0.51957 -0.66495,1.26013 -1.20899,2.20313 -1.08807,1.88599 -2.73204,4.58963 -4.92578,8.09961 -2.20722,3.53156 -3.86826,6.43434 -4.99023,8.73437 -1.12197,2.30004 -1.74219,3.93581 -1.74219,5.26953 0,0.49114 0.0373,1.19532 0.11133,2.15821 a 0.93200818,0.93200818 0 0 0 0.002,0.006 c 0.0722,0.86591 0.10547,1.51279 0.10547,1.90039 0,0.51235 -0.11462,0.73774 -0.21289,0.84179 -0.0983,0.10406 -0.26468,0.20313 -0.72266,0.20313 -1.16944,0 -2.42411,-0.54928 -3.81445,-1.83789 -1.39034,-1.28861 -2.86947,-3.30147 -4.37695,-6.0293 a 0.93200818,0.93200818 0 0 0 -0.0664,-0.0293 c -1.87974,-3.23625 -3.26388,-7.11305 -4.11719,-11.66406 -0.87047,-4.64247 -1.30078,-8.79749 -1.30078,-12.45898 0,-3.82971 -0.14859,-7.55106 -0.44336,-11.164066 -0.2242,-3.719509 -0.74882,-6.408586 -1.76758,-8.191406 a 0.93200818,0.93200818 0 0 0 -0.0586,-0.02539 c -0.50364,-0.811483 -0.71662,-1.500077 -0.74805,-2.091796 a 0.93200818,0.93200818 0 0 0 0.041,-0.03516 l 0.0156,-0.101562 c 0.15837,-0.02451 0.42846,-0.08594 0.49024,-0.08594 z m 50.08789,9.667969 c -2.61399,0 -4.60013,0.201119 -6.05664,0.679688 -0.72826,0.239284 -1.3388,0.548609 -1.80664,1.009765 -0.46784,0.461157 -0.75782,1.11212 -0.75782,1.769534 0,0.52145 0.14611,1.0797 0.54883,1.48242 0.40272,0.40272 0.96097,0.54687 1.48242,0.54687 0.49114,0 1.19532,-0.0373 2.15821,-0.11132 0.94102,-0.0724 1.62803,-0.10743 2.01562,-0.10743 3.50913,0 6.65762,1.64383 9.61133,5.16016 a 0.93200818,0.93200818 0 0 0 0.006,0.008 c 3.04463,3.54028 4.49805,7.04476 4.49805,10.59571 0,0.23623 -0.12735,0.52198 -0.875,0.94922 -0.74766,0.42723 -2.02132,0.8577 -3.76172,1.21289 a 0.93200818,0.93200818 0 0 0 -0.004,0.002 c -1.78781,0.37246 -3.14056,0.74184 -4.12109,1.15039 -0.49027,0.20428 -0.88952,0.41249 -1.22656,0.69336 -0.33705,0.28087 -0.66602,0.70979 -0.66602,1.26562 0,0.37722 0.14385,0.78239 0.38867,1.07618 0.24482,0.29378 0.55648,0.48001 0.88477,0.61132 0.65658,0.26264 1.42683,0.3418 2.40429,0.3418 1.67072,0 2.90322,0.0375 3.65039,0.10547 0.65083,0.0592 1.56303,0.317 2.67774,0.80469 a 0.93200818,0.93200818 0 0 0 0.0176,0.008 c 1.09019,0.4489 1.81503,1.07181 2.29297,1.9082 l -0.0762,-0.16797 c 0.19066,0.57198 0.52242,1.17034 0.98829,1.86914 a 0.93200818,0.93200818 0 0 0 0.0391,0.0566 c 0.61822,0.79486 1.44752,1.34766 2.38281,1.34766 1.56105,0 2.93039,-0.8251 3.69922,-2.20898 0.76883,-1.38389 1.07812,-3.24964 1.07812,-5.64258 0,-5.79825 -2.18237,-11.6367 -6.4414,-17.46484 -4.28578,-5.864744 -9.35375,-8.951177 -15.03125,-8.951177 z m 0,1.865234 c 5.01367,10e-7 9.4652,2.626843 13.52734,8.185543 4.08889,5.59532 6.08008,11.03294 6.08008,16.36524 0,2.22037 -0.3311,3.81356 -0.84375,4.73633 -0.51265,0.92277 -1.06645,1.25195 -2.06836,1.25195 -0.23185,0 -0.50046,-0.11943 -0.89453,-0.61719 -0.39114,-0.5935 -0.64889,-1.08532 -0.74805,-1.38281 a 0.93200818,0.93200818 0 0 0 -0.0742,-0.16797 c -0.69231,-1.21155 -1.7978,-2.12469 -3.19336,-2.70117 -1.2229,-0.53402 -2.28549,-0.86225 -3.24218,-0.94922 -0.86382,-0.0785 -2.12258,-0.11328 -3.82032,-0.11328 -0.73941,0 -1.18231,-0.0934 -1.48437,-0.18164 0.13118,-0.0754 0.20132,-0.1332 0.41601,-0.22266 0.77618,-0.32341 2.05667,-0.6874 3.78125,-1.04687 1.84774,-0.37709 3.26609,-0.82393 4.3125,-1.42188 1.04642,-0.59795 1.81641,-1.48455 1.81641,-2.5664 0,-4.06469 -1.69631,-8.0281 -4.94922,-11.81055 -3.19572,-3.80065 -6.92794,-5.81641 -11.03125,-5.81641 -0.49114,0 -1.19532,0.0373 -2.1582,0.11133 -0.94103,0.0724 -1.62804,0.10742 -2.01563,0.10742 -0.21081,0 -0.2026,-0.0385 -0.16601,-0.002 0.0366,0.0366 -0.002,0.0468 -0.002,-0.16406 0,-0.1847 0.0302,-0.27098 0.20312,-0.441409 0.1729,-0.170429 0.52491,-0.386587 1.07813,-0.568359 1.10644,-0.363545 2.96464,-0.583985 5.47656,-0.583985 z m -20.08008,11.822263 c -0.003,-0.004 0.005,0.0362 0.004,0.0352 -0.0313,0.001 0.0138,0.004 -0.0254,0.004 0.13968,0 0.0495,-0.005 0.0215,-0.0391 z"
                 id="path70584" />
              <path
                 style="color:#000000;-inkscape-font-specification:'UnPen, Normal';fill:#000000;stroke:none;stroke-linejoin:miter;-inkscape-stroke:none;paint-order:stroke fill markers"
                 d="m 276.15159,123.23009 q 0,6.91998 -3.84444,6.91998 -0.87873,0 -1.64762,-0.98857 -0.65904,-0.98857 -0.87872,-1.64761 -0.87873,-1.53778 -2.74603,-2.30666 -1.75745,-0.76889 -2.96571,-0.87873 -1.20825,-0.10984 -3.73459,-0.10984 -2.74602,0 -2.74602,-1.09841 0,-1.09841 5.27236,-2.19682 5.38221,-1.09841 5.38221,-3.07555 0,-5.71173 -4.72316,-11.20378 -4.61332,-5.49205 -10.32505,-5.49205 -0.65905,0 -2.08698,0.10984 -1.42794,0.10984 -2.08698,0.10984 -1.09841,0 -1.09841,-1.09841 0,-2.526344 7.68887,-2.526344 8.01839,0 14.27933,8.567594 6.26094,8.5676 6.26094,16.91552 z m -39.65261,-12.41203 q 0,0.87872 -6.59046,11.42346 -6.59046,10.54474 -6.59046,13.51044 0,0.65905 0.10984,2.08698 0.10984,1.31809 0.10984,1.97714 0,1.97714 -1.86729,1.97714 -4.39364,0 -9.00696,-8.34792 v 0.10984 q -2.96571,-5.05268 -4.2838,-12.08251 -1.3181,-7.02982 -1.3181,-12.63171 0,-5.71173 -0.43936,-11.093944 -0.32952,-5.49205 -1.64762,-7.798711 v 0.109841 q -0.98856,-1.537774 -0.98856,-2.855866 h 0.10984 l 0.10984,-0.768887 q 0.87873,-0.219682 1.31809,-0.219682 1.8673,0 4.17396,4.613322 1.64761,3.29523 1.8673,7.139665 0.32952,3.405072 0.32952,10.434892 0.10984,7.02983 1.75745,14.16949 1.64762,7.02983 4.50349,7.02983 2.08697,0 9.33648,-9.99553 7.24951,-9.99554 8.01839,-9.99554 0.98857,0 0.98857,1.20826 z"
                 id="path70586" />
            </g>
            <g
               id="path70567">
              <path
                 style="color:#000000;-inkscape-font-specification:'UnPen, Normal';fill:#000000;stroke:none;stroke-linejoin:miter;-inkscape-stroke:none;paint-order:stroke fill markers"
                 d="m 339.63672,72.759766 c -0.92315,0 -1.67727,0.09801 -2.32422,0.435546 -0.64695,0.337539 -1.13281,1.077396 -1.13281,1.814454 0,0.65124 0.34242,0.944684 0.65625,1.234375 0.31383,0.28969 0.70934,0.565877 1.21484,0.876953 a 0.93200818,0.93200818 0 0 0 0.0469,0.02734 c 0.79638,0.428821 1.62046,1.171028 2.4414,2.265625 a 0.93200818,0.93200818 0 0 0 0.041,0.05078 c 0.78414,0.904773 1.20117,2.114053 1.20117,3.783203 0,1.189037 -0.25338,4.184506 -0.75781,8.734375 a 0.93200818,0.93200818 0 0 0 -0.01,0.0078 l -0.002,0.04492 -0.0684,1.419922 c -5.16237,0.38382 -9.3331,0.613281 -11.96094,0.613281 -3.77795,0 -6.56655,-0.189482 -8.27539,-0.53125 a 0.93200818,0.93200818 0 0 0 -0.0195,-0.0039 c -1.06624,-0.18816 -2.61536,-0.802153 -4.54297,-1.873047 a 0.93200818,0.93200818 0 0 0 -0.0234,-0.01367 l -2.96484,-1.537109 a 0.93200818,0.93200818 0 0 0 -1.08984,0.167969 l -0.76758,0.769531 a 0.93200818,0.93200818 0 0 0 -0.27344,0.658203 c 0,1.163479 0.53286,2.287764 1.42969,3.347656 a 0.93200818,0.93200818 0 0 0 0.008,0.0098 c 1.57842,1.815183 3.6657,3.185963 6.20508,4.109375 a 0.93200818,0.93200818 0 0 0 0.0332,0.01172 c 2.53509,0.820176 4.71801,1.313576 6.58008,1.468746 a 0.93200818,0.93200818 0 0 0 0.002,0 c 1.87105,0.14969 4.30675,0.22266 7.32422,0.22266 1.8635,0 4.73243,-0.15986 8.07422,-0.39258 v 3.30664 7.6543 c -1.08485,0.0111 -2.29324,0.0319 -4.15039,0.0918 -2.19165,0.073 -3.83441,0.10937 -4.91211,0.10937 -4.97164,0 -8.50523,-0.68423 -10.51562,-1.85156 a 0.93200818,0.93200818 0 0 0 -0.0527,-0.0273 c -0.18177,-0.0909 -0.50991,-0.3123 -0.91797,-0.65235 -0.47066,-0.39222 -0.8733,-0.68469 -1.27734,-0.88672 -0.25758,-0.12878 -0.59567,-0.25585 -1.18945,-0.47851 a 0.93200818,0.93200818 0 0 0 -0.69336,0.0176 c -0.71935,0.30828 -1.33399,1.04197 -1.33399,1.84375 0,1.51547 0.50698,2.91807 1.47656,4.0625 0.96959,1.14442 2.36512,2.03853 4.13868,2.73632 3.54712,1.39559 8.65656,2.04297 15.41796,2.04297 h 4.08985 c 0.13366,1.29672 0.28309,2.88979 0.47265,5.29102 a 0.93200818,0.93200818 0 0 0 0.002,0.0273 c 0.2904,2.68621 0.50765,4.67172 0.65429,5.99219 v 1.92578 c 0,0.63425 0.0891,1.03713 0.13868,1.53125 -0.673,-0.0296 -1.29109,-0.0501 -2.41602,-0.15234 h -0.002 c -1.60017,-0.21714 -2.78388,-0.33399 -3.59961,-0.33399 -7.42734,0 -13.04288,0.79355 -16.93164,2.4961 -3.88876,1.70254 -6.07813,4.5248 -6.07813,8.10156 0,4.00107 1.83232,7.20558 5.26953,9.20898 3.43722,2.00341 8.38685,2.92774 14.88477,2.92774 4.97773,0 8.91346,-1.16515 11.66016,-3.61328 2.49838,-2.22682 3.87561,-5.50526 4.28515,-9.58594 4.14627,1.10635 8.18829,2.83589 12.10938,5.36133 1.33347,0.88842 2.46583,1.56489 3.41797,2.03125 0.9555,0.468 1.70603,0.7539 2.46875,0.7539 1.13145,0 2.17509,-0.38588 2.9375,-1.13476 0.78517,-0.70082 1.17968,-1.7412 1.17968,-2.87305 0,-1.31598 -0.5921,-2.57573 -1.61523,-3.70117 -1.02313,-1.12544 -2.4813,-2.16144 -4.37305,-3.16406 -3.65454,-1.93691 -9.03671,-3.74693 -16.02929,-5.49415 0.0277,-1.95953 -0.10231,-4.4194 -0.50586,-7.8496 -0.43738,-3.71775 -0.65235,-6.44911 -0.65235,-8.12891 v -0.29688 c 5.91151,-0.6883 10.50727,-1.57834 13.64649,-2.75781 1.65129,-0.62043 2.93539,-1.31204 3.86132,-2.15234 0.92594,-0.8403 1.49415,-1.89707 1.49415,-3.03125 0,-0.94196 -0.36826,-1.84492 -1.05469,-2.45508 -0.68643,-0.61016 -1.6071,-0.94056 -2.70703,-1.10352 a 0.93200818,0.93200818 0 0 0 -0.0273,-0.004 c -1.04121,-0.1225 -2.40077,-0.6453 -4.01172,-1.625 -0.002,-0.001 -0.004,-5.6e-4 -0.006,-0.002 -0.83006,-0.54122 -1.46817,-0.95301 -1.9121,-1.23047 -0.22462,-0.14039 -0.4002,-0.24719 -0.53711,-0.32618 -0.0685,-0.0395 -0.1255,-0.0715 -0.18946,-0.10351 -0.032,-0.016 -0.0648,-0.032 -0.11718,-0.0527 -0.0524,-0.0207 -0.0694,-0.0723 -0.36524,-0.0723 -0.43158,0 -0.96165,0.27496 -1.20117,0.6582 -0.23953,0.38324 -0.2793,0.76236 -0.2793,1.15235 0,0.63934 0.30894,1.25028 0.67383,1.9082 a 0.93200818,0.93200818 0 0 0 0.002,0.32031 c 0.44881,0.76938 0.59273,1.30507 0.60938,1.53516 -0.0793,0.10753 -0.25421,0.3226 -0.8086,0.58594 -0.63182,0.30011 -1.58427,0.60955 -2.82031,0.89257 -2.05816,0.42322 -3.48854,0.56142 -4.72461,0.62696 0.009,-0.86189 0.0289,-1.69453 -0.0781,-2.87305 v -0.004 c -0.14512,-1.66975 -0.2168,-2.8716 -0.2168,-3.54101 0,-0.88484 0.0797,-2.40596 0.18164,-4.08594 0.0511,-0.005 0.0769,-0.006 0.13281,-0.0117 0.55284,-0.05528 1.34011,-0.138214 2.36524,-0.248046 2.13013,-0.220358 4.0418,-0.43913 5.73633,-0.660156 1.70198,-0.221997 3.58245,-0.51849 5.64453,-0.886719 a 0.93200818,0.93200818 0 0 0 0.0312,-0.0059 c 2.10814,-0.451746 3.79873,-1.016551 5.0957,-1.746094 1.31304,-0.738581 2.23242,-1.752427 2.23242,-3.009765 0,-1.290342 -0.33783,-2.425726 -1.125,-3.212891 -0.78716,-0.787165 -1.92254,-1.123047 -3.21289,-1.123047 -1.4824,0 -3.45841,0.514552 -6.13867,1.482422 a 0.93200818,0.93200818 0 0 0 -0.0117,0.02148 c -0.41035,0.116603 -1.50819,0.361587 -3.33203,0.708985 -1.59897,0.304566 -4.00593,0.732559 -6.61914,1.191406 0.41258,-3.437978 0.88839,-6.522078 1.50781,-8.691406 l 0.002,-0.0059 c 0.37157,-1.263365 0.58593,-1.998566 0.58593,-2.673828 0,-2.546841 -1.24735,-4.708548 -3.49609,-6.158203 -2.18823,-1.481833 -4.62196,-2.242187 -7.21289,-2.242187 z m 0,1.863281 c 2.23764,0 4.26813,0.63193 6.17773,1.927734 a 0.93200818,0.93200818 0 0 0 0.0195,0.01172 c 1.84567,1.186496 2.64649,2.608188 2.64649,4.597656 0,0.0555 -0.15061,0.933161 -0.50977,2.154297 a 0.93200818,0.93200818 0 0 0 -0.002,0.0078 c -0.75546,2.644107 -1.34614,6.055862 -1.78906,10.263671 a 0.93200818,0.93200818 0 0 0 1.08593,1.015625 c 3.37127,-0.586306 6.02042,-1.063876 7.95118,-1.43164 1.93076,-0.367764 3.0929,-0.607009 3.69726,-0.792969 a 0.93200818,0.93200818 0 0 0 0.043,-0.04102 c 2.51248,-0.897377 4.40757,-1.345703 5.39453,-1.345703 0.97971,0 1.54668,0.230268 1.89453,0.578125 0.34786,0.347858 0.57813,0.914829 0.57813,1.894532 0,0.353661 -0.25101,0.805256 -1.28125,1.384765 -1.04497,0.587795 -2.57756,1.120169 -4.56641,1.546875 -0.003,5.47e-4 -0.003,0.0014 -0.006,0.002 -2.02505,0.361163 -3.87027,0.649096 -5.52734,0.865235 -1.67392,0.218337 -3.57045,0.437245 -5.6875,0.65625 a 0.93200818,0.93200818 0 0 0 -0.002,0 c -1.02402,0.109715 -1.81035,0.193534 -2.35547,0.248047 -0.27256,0.02726 -0.48553,0.04738 -0.63477,0.06055 -0.14923,0.01317 -0.28691,0.01563 -0.20703,0.01563 a 0.93200818,0.93200818 0 0 0 -0.92969,0.871094 c -0.14714,2.207109 -0.2207,3.864079 -0.2207,5.003909 0,0.7944 0.0752,2.00923 0.22266,3.70508 a 0.93200818,0.93200818 0 0 0 0,0.004 c 0.14368,1.58057 0.17587,2.82495 0.10937,3.68946 a 0.93200818,0.93200818 0 0 0 0.92969,1.0039 c 1.50576,0 3.4845,-0.26956 6.00781,-0.78906 a 0.93200818,0.93200818 0 0 0 0.0215,-0.004 c 1.322,-0.30217 2.38188,-0.63262 3.21289,-1.02734 0.831,-0.39473 1.48536,-0.84516 1.82031,-1.58203 a 0.93200818,0.93200818 0 0 0 0.084,-0.38672 v -0.21875 c 0,-0.62071 -0.34294,-1.26433 -0.67578,-1.92774 a 0.93200818,0.93200818 0 0 0 -0.11719,-0.63867 c -0.21649,-0.36082 -0.2074,-0.46996 -0.28711,-0.69726 0.40824,0.2589 0.84271,0.53625 1.50586,0.96875 a 0.93200818,0.93200818 0 0 0 0.0254,0.0156 c 1.75451,1.06795 3.32251,1.71648 4.76954,1.88672 l -0.0293,-0.004 c 0.8772,0.12996 1.44005,0.38378 1.74219,0.65235 0.30214,0.26857 0.42968,0.53991 0.42968,1.0625 0,0.55004 -0.2252,1.0536 -0.88281,1.65039 -0.6576,0.59678 -1.74789,1.21759 -3.26367,1.78711 -3.03157,1.13903 -7.73375,2.08418 -14.02734,2.77539 a 0.93200818,0.93200818 0 0 0 -0.83008,0.92578 v 1.09961 c 0,1.83512 0.22467,4.59427 0.66601,8.3457 0.43652,3.71037 0.61255,6.50546 0.54297,8.31446 a 0.93200818,0.93200818 0 0 0 0.71094,0.93945 c 7.28217,1.78413 12.7225,3.64569 16.26172,5.52148 1.76961,0.9379 3.05768,1.87927 3.86523,2.76758 0.80756,0.88831 1.13086,1.67822 1.13086,2.44922 0,0.76079 -0.18988,1.17176 -0.56054,1.49609 a 0.93200818,0.93200818 0 0 0 -0.0449,0.043 c -0.40735,0.40735 -0.88764,0.60547 -1.64843,0.60547 -0.18924,0 -0.81183,-0.15373 -1.65039,-0.56445 -0.83856,-0.41073 -1.91829,-1.05165 -3.21485,-1.91602 a 0.93200818,0.93200818 0 0 0 -0.0117,-0.008 c -4.40042,-2.83417 -8.96741,-4.82101 -13.68945,-5.94531 a 0.93200818,0.93200818 0 0 0 -1.14648,0.86133 c -0.21159,4.33738 -1.50261,7.42708 -3.8086,9.48242 -2.30599,2.05533 -5.73165,3.14258 -10.41992,3.14258 -6.31686,0 -10.97709,-0.9446 -13.94727,-2.67579 -2.97017,-1.73118 -4.34179,-4.12954 -4.34179,-7.59765 0,-2.86724 1.49035,-4.87507 4.96093,-6.39453 3.47059,-1.51946 8.89226,-2.33789 16.1836,-2.33789 0.63908,0 1.79836,0.10318 3.39062,0.32031 a 0.93200818,0.93200818 0 0 0 0.041,0.004 c 1.62368,0.14761 2.80521,0.22461 3.59961,0.22461 a 0.93200818,0.93200818 0 0 0 0.9043,-1.1582 c -0.11322,-0.45287 -0.19336,-1.24379 -0.19336,-2.30078 v -1.97656 -0.10938 a 0.93200818,0.93200818 0 0 0 -0.008,-0.008 c -0.14558,-1.31043 -0.36407,-3.31368 -0.65429,-5.99805 l -0.002,-0.0273 c -0.21875,-2.76857 -0.40073,-4.81947 -0.54882,-6.15234 a 0.93200818,0.93200818 0 0 0 -0.92579,-0.83008 h -4.94336 c -6.63918,0 -11.5812,-0.67152 -14.73437,-1.91211 -1.57659,-0.6203 -2.69295,-1.37433 -3.39844,-2.20703 -0.68622,-0.80997 -1.00587,-1.69474 -1.02344,-2.77344 0.1763,0.0711 0.48815,0.19231 0.50586,0.20117 0.18177,0.0909 0.5099,0.31033 0.91797,0.65039 0.4605,0.38375 0.85662,0.66571 1.25196,0.86719 2.52964,1.46056 6.30761,2.0957 11.42773,2.0957 1.11868,0 2.77197,-0.038 4.97266,-0.11133 2.2652,-0.0731 3.94573,-0.10937 5.02343,-0.10937 a 0.93200818,0.93200818 0 0 0 0.93164,-0.93164 v -8.56641 -4.285154 a 0.93200818,0.93200818 0 0 0 -1.00195,-0.929687 c -3.94244,0.292032 -6.93151,0.4375 -8.9375,0.4375 -2.98554,0 -5.38188,-0.07373 -7.17187,-0.216797 h -0.004 c -1.64552,-0.13747 -3.70313,-0.594561 -6.13281,-1.378906 -2.28687,-0.832964 -4.0754,-2.023504 -5.42383,-3.572266 -0.55063,-0.652278 -0.66438,-1.158942 -0.76563,-1.658203 l 2.1543,1.117187 -0.0234,-0.01367 c 2.02348,1.124151 3.69322,1.823944 5.11524,2.076172 1.95227,0.389218 4.79531,0.56836 8.62695,0.56836 2.90366,0 7.20026,-0.221835 12.92383,-0.66211 a 0.93200818,0.93200818 0 0 0 0.85937,-0.884765 l 0.10157,-2.134766 a 0.93200818,0.93200818 0 0 0 0.004,-0.0039 c 0.51367,-4.622999 0.77344,-7.561105 0.77344,-9 0,-1.981677 -0.53487,-3.690763 -1.64258,-4.980469 -0.92875,-1.230684 -1.9247,-2.169188 -3.02148,-2.759766 l 0.0469,0.02734 c -0.43052,-0.264935 -0.72743,-0.486532 -0.89453,-0.636719 0.0202,-0.0085 -0.0201,-0.01888 0.041,-0.05078 0.19516,-0.101825 0.70181,-0.224609 1.46289,-0.224609 z m -7.9082,62.833983 c -4.84856,0 -8.51194,0.39066 -11.0879,1.25586 -1.28797,0.4326 -2.31707,0.98717 -3.0625,1.73828 -0.74542,0.75111 -1.16992,1.73282 -1.16992,2.76953 0,2.48243 1.57928,4.48106 4.24024,5.63282 2.66096,1.15175 6.4367,1.66992 11.41015,1.66992 3.66214,0 6.59427,-0.8745 8.64453,-2.74024 2.05027,-1.86574 3.1159,-4.65126 3.26954,-8.14648 a 0.93200818,0.93200818 0 0 0 -0.76758,-0.95703 c -4.57488,-0.81167 -8.39091,-1.22266 -11.47656,-1.22266 z m 0,1.86328 c 2.67509,0 6.20932,0.42313 10.21875,1.09375 -0.26988,2.6549 -1.05733,4.67918 -2.49805,5.99024 -1.6111,1.4661 -4.02295,2.25586 -7.39063,2.25586 -4.83899,0 -8.42465,-0.5438 -10.66992,-1.51563 -2.24526,-0.97183 -3.11719,-2.15908 -3.11719,-3.92383 0,-0.57428 0.17524,-0.99989 0.62891,-1.45703 0.45367,-0.45713 1.22377,-0.9103 2.33398,-1.2832 2.22044,-0.7458 5.74993,-1.16016 10.49415,-1.16016 z"
                 id="path70590" />
              <path
                 style="color:#000000;-inkscape-font-specification:'UnPen, Normal';fill:#000000;stroke:none;stroke-linejoin:miter;-inkscape-stroke:none;paint-order:stroke fill markers"
                 d="m 370.283,146.40654 q 0,1.42793 -0.87873,2.19682 -0.87873,0.87873 -2.30666,0.87873 -1.42793,0 -5.38221,-2.63619 -6.48062,-4.17395 -13.4006,-5.82157 -0.65905,13.51044 -15.15806,13.51044 -19.22218,0 -19.22218,-11.20378 0,-9.66601 22.07805,-9.66601 1.09841,0 3.51491,0.32953 2.4165,0.21968 3.51491,0.21968 -0.21968,-0.87873 -0.21968,-2.52634 0,-1.64762 0,-2.08698 v 0.10984 q -0.21968,-1.97714 -0.65905,-6.04126 -0.32952,-4.17396 -0.5492,-6.15109 h -4.94285 q -20.1009,0 -20.1009,-7.90856 0,-0.65904 0.76889,-0.98856 0.87872,0.32952 1.09841,0.43936 0.43936,0.21968 1.09841,0.76889 0.65904,0.5492 1.09841,0.76888 3.40507,1.97714 10.9841,1.97714 1.64761,0 4.94284,-0.10984 3.40507,-0.10984 5.05269,-0.10984 v -8.5676 -4.283798 q -5.93142,0.439364 -9.00697,0.439364 -4.50348,0 -7.2495,-0.219682 -2.63619,-0.219682 -6.37078,-1.427933 -3.62475,-1.318092 -5.82157,-3.844435 -1.20825,-1.427933 -1.20825,-2.746025 l 0.76888,-0.768887 2.96571,1.537774 q 2.96571,1.647615 4.833,1.977138 2.74603,0.549205 8.45776,0.549205 4.2838,0 12.8514,-0.659046 l 0.10984,-2.306661 v 0.109841 q 0.76889,-6.919983 0.76889,-8.897121 0,-2.746026 -1.42794,-4.393641 -1.31809,-1.757456 -2.74602,-2.526343 -1.42793,-0.878728 -1.42793,-1.318092 0,-1.318092 2.52634,-1.318092 3.62475,0 6.7003,2.086979 3.07555,1.977138 3.07555,5.382209 0,0.549206 -0.54921,2.416503 -1.09841,3.844435 -1.75745,10.105372 10.10537,-1.757456 11.5333,-2.19682 h -0.10984 q 3.95428,-1.427933 5.82157,-1.427933 3.40508,0 3.40508,3.405071 0,1.208251 -1.75746,2.19682 -1.75746,0.988569 -4.833,1.647615 -3.07555,0.549205 -5.6019,0.878728 -2.52634,0.329523 -5.71173,0.659046 -3.07555,0.329523 -3.29523,0.329523 -0.21968,3.295231 -0.21968,4.942841 0,1.09841 0.21968,3.62476 0.21968,2.4165 0.10984,3.84443 2.08698,0 5.82158,-0.76888 3.84443,-0.87873 4.39364,-2.08698 v -0.21969 q 0,-0.76888 -0.76889,-2.08697 h 0.10984 q -0.65905,-1.09841 -0.65905,-1.75746 0,-0.87873 0.54921,-0.87873 0.10984,0 2.63618,1.64762 2.52635,1.53777 4.39364,1.75745 2.96571,0.43937 2.96571,2.63619 0,5.05268 -19.00249,7.13966 v 1.09841 q 0,2.63619 0.65904,8.23808 0.65905,5.60189 0.54921,8.45775 21.9682,5.38221 21.9682,11.64315 z m -27.24057,-6.81014 q -6.81014,-1.20825 -11.31362,-1.20825 -14.38917,0 -14.38917,4.833 0,6.37078 14.71869,6.37078 10.54474,0 10.9841,-9.99553 z"
                 id="path70592" />
            </g>
            <g
               id="path70569">
              <path
                 style="color:#000000;-inkscape-font-specification:'UnPen, Normal';fill:#000000;stroke:none;stroke-linejoin:miter;-inkscape-stroke:none;paint-order:stroke fill markers"
                 d="m 432.66992,74.847656 c -1.95572,0 -3.5969,0.528076 -4.70898,1.685547 -1.11208,1.157471 -1.60547,2.831133 -1.60547,4.847656 0,1.262595 0.59116,2.546755 1.60547,3.951172 a 0.93200818,0.93200818 0 0 0 0.0195,0.02539 c 1.06699,1.371847 2.28665,2.629827 3.6543,3.769531 a 0.93200818,0.93200818 0 0 0 0.0234,0.01953 c 1.31621,1.023715 2.66894,2.084546 4.0586,3.181641 a 0.93200818,0.93200818 0 0 0 0.0254,0.01758 c 0.70706,0.520995 1.12838,0.791077 1.68945,1.183594 -7.48564,2.25429 -13.1558,3.505859 -16.29492,3.505859 -2.49894,0 -4.71927,-0.813652 -6.78906,-2.421875 a 0.93200818,0.93200818 0 0 0 -0.0215,-0.05078 c -0.49793,-0.497926 -1.16896,-0.822266 -1.86719,-0.822266 -0.64571,0 -1.32751,0.412576 -1.63867,0.972657 -0.31115,0.560081 -0.39062,1.190213 -0.39062,1.935546 0,2.191022 1.3149,4.143363 3.58789,5.710943 a 0.93200818,0.93200818 0 0 0 0.0117,0.008 c 2.3002,1.53347 4.52511,2.35351 6.66797,2.35351 2.77596,0 6.79993,-0.91088 12.25976,-2.68164 a 0.93200818,0.93200818 0 0 0 0.008,-0.002 c 5.26043,-1.75348 8.71766,-2.707167 10.61328,-3.025391 4.92171,4.709181 9.89404,10.621301 14.9004,17.562501 -0.99478,-0.0506 -1.76724,-0.0663 -3.31836,-0.20313 -2.41855,-0.29235 -4.30359,-0.44336 -5.6836,-0.44336 -12.49304,0 -21.99952,2.35174 -28.46094,7.2168 -3.72346,2.8116 -5.7539,5.98392 -5.7539,9.42188 0,3.59806 1.36055,6.89696 3.98047,9.74804 a 0.93200818,0.93200818 0 0 0 0.0176,0.0176 c 2.66361,2.73972 5.97333,4.8664 9.89062,6.37305 3.85452,1.48251 7.67772,2.5965 11.46875,3.33984 3.78199,0.74157 7.24503,1.11524 10.39453,1.11524 2.10412,0 3.75971,-0.28424 5,-1.00586 1.2403,-0.72163 1.97266,-2.00282 1.97266,-3.44141 0,-1.29144 -0.66701,-2.46249 -1.7793,-3.11133 -1.11229,-0.64884 -2.57577,-0.89648 -4.42383,-0.89648 h -3.51562 c -0.30386,0 -1.6935,-0.0363 -4.03321,-0.10938 h -0.002 c -2.25276,-0.0727 -3.85606,-0.18534 -4.7207,-0.31836 a 0.93200818,0.93200818 0 0 0 -0.0645,-0.008 c -0.83816,-0.0698 -2.33636,-0.251 -4.45313,-0.54297 -2.08886,-0.28811 -3.62341,-0.61776 -4.53125,-0.9414 -0.001,-4.3e-4 -0.005,-0.002 -0.006,-0.002 -1.02266,-0.43786 -2.31596,-0.9787 -3.90039,-1.62695 -1.45845,-0.62505 -2.52094,-1.30788 -3.20703,-1.99023 -0.65488,-0.72441 -1.26256,-1.62736 -1.81055,-2.72071 -0.52651,-1.12156 -0.78906,-2.29109 -0.78906,-3.54883 0,-3.29636 1.79058,-5.63782 5.88672,-7.38085 4.09613,-1.74304 10.45603,-2.67188 18.99414,-2.67188 8.02748,0 13.66719,1.33829 16.90625,3.76758 a 0.93200818,0.93200818 0 0 0 0.0234,0.0176 c 1.00628,0.70812 1.84209,1.24485 2.53515,1.62109 0.69307,0.37624 1.18391,0.63477 1.84571,0.63477 1.40122,0 2.64896,-0.48568 3.44336,-1.47266 0.79439,-0.98698 1.11328,-2.33672 1.11328,-3.96289 0,-1.84841 -0.88927,-3.80158 -2.49414,-5.94141 a 0.93200818,0.93200818 0 0 0 -0.0156,-0.0195 c -7.47931,-9.41839 -13.68951,-16.30088 -18.86719,-21.060546 l 1.12305,-0.466797 a 0.93200818,0.93200818 0 0 0 0.19727,0.02539 c 4.98679,-1.810022 8.75263,-3.593435 11.33984,-5.414062 2.58721,-1.820628 4.10352,-3.75643 4.10352,-5.896485 0,-1.208236 -0.3985,-2.306694 -1.23633,-3.017578 -0.83783,-0.710884 -1.98028,-0.990234 -3.32032,-0.990234 -0.6483,0 -1.50684,0.07991 -2.58984,0.222656 -1.08881,0.07259 -1.88531,0.107422 -2.35351,0.107422 -1.73356,0 -4.73651,-0.658332 -8.7793,-1.996094 a 0.93200818,0.93200818 0 0 0 -0.043,-0.04297 c -0.42463,-0.141544 -1.93357,-0.656576 -4.49609,-1.535156 -2.57952,-0.884406 -4.7608,-1.514142 -6.57227,-1.892578 -1.80349,-0.449798 -3.40716,-0.683594 -4.82422,-0.683594 z m 0,1.863281 c 1.21455,0 2.68245,0.204792 4.38672,0.63086 a 0.93200818,0.93200818 0 0 0 0.0371,0.0078 c 1.70028,0.354224 3.83044,0.96748 6.36914,1.837891 2.48464,0.851876 3.86903,1.324102 4.37109,1.492187 a 0.93200818,0.93200818 0 0 0 0.0293,0.04687 c 4.21584,1.405278 7.32575,2.134766 9.52149,2.134766 0.55696,0 1.3705,-0.03746 2.47851,-0.111328 a 0.93200818,0.93200818 0 0 0 0.0606,-0.0059 c 1.07689,-0.143586 1.89613,-0.210938 2.40429,-0.210938 1.07647,0 1.74482,0.232577 2.11524,0.546875 0.37042,0.314298 0.57617,0.753577 0.57617,1.595703 0,1.2284 -0.95491,2.715379 -3.31055,4.373047 -2.32332,1.634932 -5.93066,3.360324 -10.72851,5.113281 a 0.93200818,0.93200818 0 0 0 -0.21485,-0.02148 l -2.63671,1.097656 a 0.93200818,0.93200818 0 0 0 -0.25977,1.556641 c 5.19711,4.619658 11.76287,11.909628 19.64648,21.835938 1.46852,1.95908 2.11719,3.59208 2.11719,4.81836 0,1.37614 -0.28536,2.27879 -0.69922,2.79297 -0.41385,0.51418 -0.9769,0.77929 -1.99218,0.77929 0.076,0 -0.36863,-0.0888 -0.95704,-0.4082 -0.5884,-0.31942 -1.3807,-0.82657 -2.35156,-1.50976 l 0.0234,0.0176 c -3.79076,-2.84306 -9.79642,-4.14062 -18.02539,-4.14062 -8.6703,0 -15.21654,0.90198 -19.72461,2.82031 -4.50807,1.91833 -7.01953,5.06934 -7.01953,9.0957 0,1.52212 0.32402,2.98568 0.9668,4.35157 a 0.93200818,0.93200818 0 0 0 0.01,0.0195 c 0.61708,1.23415 1.32075,2.2954 2.12109,3.17578 a 0.93200818,0.93200818 0 0 0 0.0312,0.0312 c 0.92532,0.92531 2.19667,1.70454 3.80665,2.39453 a 0.93200818,0.93200818 0 0 0 0.0137,0.006 c 1.60794,0.6578 2.9236,1.20638 3.9414,1.64258 a 0.93200818,0.93200818 0 0 0 0.0527,0.0215 c 1.14299,0.40821 2.75461,0.73589 4.91015,1.03321 2.10026,0.28969 3.56569,0.46834 4.48829,0.54687 1.03891,0.15983 2.65945,0.26611 4.94531,0.33984 2.34478,0.0733 3.66549,0.11133 4.09375,0.11133 h 3.51562 c 1.66685,0 2.83922,0.26428 3.48438,0.64063 0.64516,0.37634 0.85547,0.74303 0.85547,1.50195 0,0.90468 -0.27342,1.38007 -1.04688,1.83008 -0.77345,0.45001 -2.13912,0.7539 -4.0625,0.7539 -3.00158,10e-6 -6.34797,-0.35905 -10.03515,-1.08203 -3.67817,-0.7212 -7.39709,-1.80341 -11.15821,-3.25 -3.69402,-1.42077 -6.75208,-3.39545 -9.21289,-5.92382 -2.35249,-2.5646 -3.48047,-5.34035 -3.48047,-8.47461 0,-2.7128 1.55785,-5.32669 5.00977,-7.9336 5.98723,-4.50803 15.08207,-6.84179 27.33984,-6.84179 1.24906,0 3.09187,0.14312 5.48828,0.43359 a 0.93200818,0.93200818 0 0 0 0.0312,0.002 c 2.50168,0.22074 4.30431,0.33399 5.46485,0.33399 a 0.93200818,0.93200818 0 0 0 0.76172,-1.46875 c -5.593,-7.94794 -11.1578,-14.54946 -16.70704,-19.802738 a 0.93200818,0.93200818 0 0 0 -0.77734,-0.24414 c -2.1318,0.315824 -5.85355,1.386079 -11.36328,3.222658 -5.37324,1.74218 -9.32909,2.58789 -11.67773,2.58789 -1.66105,0 -3.53359,-0.64242 -5.6211,-2.03125 l -0.002,-0.002 c -1.97219,-1.360866 -2.78125,-2.704178 -2.78125,-4.173833 0,-0.572757 0.10322,-0.930332 0.1582,-1.029296 0.055,-0.09896 -0.0788,-0.01563 0.008,-0.01563 0.15925,0 0.29854,0.07357 0.48633,0.242187 a 0.93200818,0.93200818 0 0 0 0.0274,0.09961 c 2.41488,1.947488 5.17705,2.953125 8.16406,2.953125 3.89123,0 10.05575,-1.38677 18.73242,-4.107421 a 0.93200818,0.93200818 0 0 0 0.2207,-1.673829 c -0.77206,-0.491311 -1.8591,-1.251451 -3.23828,-2.267578 -0.002,-0.0014 -0.002,-0.0025 -0.004,-0.0039 -1.37528,-1.085651 -2.71546,-2.136014 -4.01954,-3.150391 -1.26348,-1.052901 -2.38271,-2.210286 -3.36328,-3.46875 -0.88037,-1.223562 -1.24414,-2.207444 -1.24414,-2.845703 0,-1.718067 0.402,-2.846816 1.08399,-3.55664 0.68199,-0.709824 1.73282,-1.113282 3.36523,-1.113282 z m 4.06445,2.310547 c -0.82546,0 -1.52578,0.100237 -2.12695,0.460938 -0.60117,0.360701 -1.00195,1.090834 -1.00195,1.789062 0,0.727508 0.31187,1.362126 0.7793,2.09375 0.46742,0.731625 1.12897,1.549834 1.99414,2.490235 1.73033,1.880801 4.27717,4.239537 7.66211,7.109375 a 0.93200818,0.93200818 0 0 0 0.80859,0.199218 c 1.71455,-0.38967 4.01333,-1.212694 6.96875,-2.46875 a 0.93200818,0.93200818 0 0 0 0.01,-0.0039 c 1.53606,-0.674366 2.70658,-1.294924 3.55274,-1.914062 0.84616,-0.619139 1.50781,-1.264339 1.50781,-2.234375 0,-0.691998 -0.41852,-1.139483 -0.86523,-1.503907 -0.44671,-0.364423 -1.02098,-0.692914 -1.75586,-1.041015 -1.46748,-0.695124 -3.57946,-1.449314 -6.37891,-2.296875 l -0.01,-0.0039 c -5.584,-1.763065 -9.13762,-2.675782 -11.14454,-2.675782 z m 0,1.863282 c 1.36009,0 5.05422,0.844424 10.59375,2.59375 a 0.93200818,0.93200818 0 0 0 0.01,0.002 c 2.75934,0.835063 4.81994,1.581236 6.13281,2.203125 0.65644,0.310944 1.12606,0.59574 1.375,0.798828 0.24895,0.203088 0.17969,0.276567 0.17969,0.06055 0,-0.09131 -0.0891,0.251198 -0.74414,0.730468 -0.655,0.479271 -1.73686,1.067214 -3.20313,1.710938 -2.70916,1.150939 -4.71672,1.835163 -6.21289,2.208984 -3.10051,-2.648209 -5.56017,-4.909322 -7.11523,-6.599609 -0.81906,-0.890281 -1.42024,-1.645956 -1.79492,-2.232422 -0.37469,-0.586466 -0.48633,-1.011851 -0.48633,-1.089844 0,-0.180498 -0.0335,-0.11079 0.0977,-0.189453 0.1311,-0.07866 0.52888,-0.197265 1.16796,-0.197265 z"
                 id="path70596" />
              <path
                 style="color:#000000;-inkscape-font-specification:'UnPen, Normal';fill:#000000;stroke:none;stroke-linejoin:miter;-inkscape-stroke:none;paint-order:stroke fill markers"
                 d="m 470.56542,123.44977 q 0,4.50348 -3.62476,4.50348 -0.87872,0 -3.84443,-2.08698 -5.27237,-3.95427 -17.46472,-3.95427 -25.81264,0 -25.81264,10.9841 0,2.08698 0.87873,3.95427 0.87873,1.75746 1.97714,2.96571 1.20825,1.20825 3.51491,2.19682 2.4165,0.98857 3.95428,1.64762 1.53777,0.5492 4.72316,0.98856 3.18539,0.43937 4.50348,0.54921 1.42794,0.21968 4.83301,0.32952 3.51491,0.10984 4.06411,0.10984 0.54921,0 3.51492,0 5.27236,0 5.27236,3.07555 0,3.51491 -6.04125,3.51491 -4.61332,0 -10.21521,-1.09841 -5.6019,-1.09841 -11.31363,-3.29523 -5.71173,-2.19682 -9.55616,-6.15109 -3.7346,-4.06412 -3.7346,-9.11681 0,-4.61332 5.38221,-8.67744 9.33649,-7.02982 27.89962,-7.02982 1.97713,0 5.60189,0.43936 3.73459,0.32953 5.38221,0.32953 -8.34792,-11.86283 -16.586,-19.661542 -2.9657,0.439364 -11.20378,3.185392 -8.12823,2.63618 -11.97267,2.63618 -2.85586,0 -6.15109,-2.19682 -3.18539,-2.196819 -3.18539,-4.942844 0,-1.977138 1.09841,-1.977138 0.65904,0 1.20825,0.549205 h -0.10984 q 3.40507,2.746025 7.57903,2.746025 5.49205,0 18.45329,-4.064117 -1.20826,-0.768887 -3.29523,-2.306661 -2.08698,-1.647615 -4.06412,-3.185389 -1.97714,-1.647615 -3.51491,-3.624753 -1.42794,-1.977138 -1.42794,-3.405072 0,-5.601891 5.38221,-5.601891 1.97714,0 4.61332,0.659046 2.63619,0.549205 6.48062,1.867297 3.84444,1.318092 4.50348,1.537774 h -0.10984 q 6.26094,2.08698 9.22665,2.08698 0.76888,0 2.4165,-0.109841 1.64761,-0.219682 2.52634,-0.219682 3.62476,0 3.62476,3.075548 0,5.052686 -14.82854,10.434895 v -0.109841 l -2.63618,1.09841 q 7.90855,7.029829 19.77138,21.968199 2.30666,3.07555 2.30666,5.38221 z M 455.95656,86.543194 q 0,-1.427933 -8.34791,-3.954276 -8.34792,-2.636185 -10.87426,-2.636185 -2.19682,0 -2.19682,1.318092 0,2.416503 10.10537,10.984101 2.4165,-0.549205 6.81014,-2.416502 4.50348,-1.977138 4.50348,-3.29523 z"
                 id="path70598" />
            </g>
            <g
               id="path70571">
              <path
                 style="color:#000000;-inkscape-font-specification:'UnPen, Normal';fill:#000000;stroke:none;stroke-linejoin:miter;-inkscape-stroke:none;paint-order:stroke fill markers"
                 d="m 529.10742,71.662109 c -0.38942,0 -0.82041,0.07905 -1.18164,0.388672 -0.36122,0.309625 -0.51758,0.800286 -0.51758,1.201172 0,2.71095 1.8061,5.599059 5.10547,8.898438 a 0.93200818,0.93200818 0 0 0 0.12305,0.02539 c 1.40183,1.409872 2.49348,2.600428 3.17578,3.482422 0.70892,0.916415 0.93164,1.636232 0.93164,1.544922 0,-0.05989 -0.0101,0.08577 -0.20508,0.345703 -0.19495,0.259935 -0.5417,0.616735 -1.02929,1.027344 -0.9752,0.821218 -2.50946,1.867207 -4.57227,3.097656 -2.10015,1.252721 -3.76408,2.314919 -5.00586,3.199219 -1.24178,0.884299 -2.04985,1.536197 -2.5332,2.234375 a 0.93200818,0.93200818 0 0 0 -0.002,0.0039 c -0.65833,0.962189 -1.03714,2.401746 -1.41211,4.539062 -0.37496,2.13732 -0.68762,4.94235 -0.94531,8.43945 a 0.93200818,0.93200818 0 0 0 0,0.004 c -0.50701,7.3155 -1.95528,14.44643 -4.3457,21.40039 a 0.93200818,0.93200818 0 0 0 -0.002,0.01 c -0.45574,1.3672 -0.70704,2.45048 -0.70704,3.36914 0,1.92085 0.38386,3.49415 1.3086,4.62695 0.92473,1.1328 2.36081,1.6875 4.01562,1.6875 0.85653,0 1.66979,-0.17474 2.39453,-0.53711 a 0.93200818,0.93200818 0 0 0 0.0781,-0.0449 c 0.69072,-0.4317 1.25067,-0.98076 1.62891,-1.64063 0.37415,-0.60044 0.71536,-1.20221 1.01757,-1.80664 a 0.93200818,0.93200818 0 0 0 0.0176,-0.0391 c 0.29308,-0.65943 0.5496,-1.28265 0.77344,-1.87695 1.72181,-3.9946 5.33997,-7.51809 11.00391,-10.5293 5.68709,-3.02352 10.92139,-4.50586 15.70898,-4.50586 4.124,0 7.13293,0.82619 9.09961,2.33399 1.90699,1.46202 2.92969,4.00513 2.92969,7.93945 0,4.79159 -1.68223,8.67049 -5.13672,11.86328 -3.4545,3.19279 -8.74045,5.66697 -15.89063,7.32812 a 0.93200818,0.93200818 0 0 0 -0.0156,0.0215 c -1.71662,0.18159 -3.1285,0.40251 -4.15625,0.70703 -1.0881,0.3224 -1.96266,0.6517 -2.31445,1.61914 a 0.93200818,0.93200818 0 0 0 0.25,1.00781 l 1.20703,1.09766 a 0.93200818,0.93200818 0 0 0 0.62695,0.24414 h 4.28516 c 4.29248,0 8.61658,-0.8307 12.95703,-2.47656 l 0.004,-0.002 c 4.44844,-1.65944 8.31234,-4.23456 11.55469,-7.70312 a 0.93200818,0.93200818 0 0 0 0.006,-0.008 c 3.27765,-3.58254 4.96875,-7.68463 4.96875,-12.16211 0,-5.60247 -1.69913,-9.99708 -5.13672,-12.9043 -3.43759,-2.90722 -8.47883,-4.28516 -15.01758,-4.28515 -8.44829,0 -17.72995,3.3473 -27.85937,9.92773 a 0.93200818,0.93200818 0 0 0 -0.008,0.006 c -0.1016,0.0677 -0.12078,0.0984 -0.21485,0.16211 0.23368,-3.11232 0.43919,-6.69665 0.56446,-11.76367 v -0.0117 c 0.21908,-5.91372 0.40186,-10.04283 0.54687,-12.36524 0.12109,-1.574139 0.9681,-2.744609 2.9043,-3.746091 2.02161,-1.045661 4.2136,-1.709527 6.59961,-1.990234 a 0.93200818,0.93200818 0 0 0 0.0234,-0.002 c 2.62323,-0.374747 5.00028,-0.97625 7.12891,-1.8125 a 0.93200818,0.93200818 0 0 0 0.0273,-0.01172 c 1.10703,-0.474438 1.99131,-1.034115 2.63086,-1.742187 0.63955,-0.708073 1.00782,-1.594981 1.00782,-2.519532 0,-1.32233 -0.73061,-2.589616 -1.94532,-3.921875 -1.21296,-1.330351 -2.9635,-2.752326 -5.26562,-4.3125 l -0.006,-0.0039 c -2.26073,-1.568007 -4.01894,-2.82561 -5.26367,-3.763672 -1.24609,-0.939081 -2.03573,-1.662848 -2.10352,-1.75 -0.77296,-1.065726 -1.42745,-1.883986 -1.98828,-2.464844 -0.28325,-0.293365 -0.5406,-0.529055 -0.8125,-0.716796 -0.2719,-0.187742 -0.56184,-0.363282 -1.01172,-0.363282 z m 0.40039,2.300782 c 0.0338,0.03345 0.0481,0.03706 0.084,0.07422 0.45868,0.475064 1.08343,1.247188 1.83789,2.289063 a 0.93200818,0.93200818 0 0 0 0.0176,0.02539 c 0.4448,0.571894 1.17482,1.128923 2.45507,2.09375 1.28026,0.964828 3.05428,2.232165 5.33008,3.810547 a 0.93200818,0.93200818 0 0 0 0.008,0.0059 c 2.23309,1.512733 3.88607,2.873781 4.94141,4.03125 1.05534,1.157468 1.45898,2.084437 1.45898,2.666015 0,0.466768 -0.14171,0.844534 -0.52734,1.271485 -0.38404,0.425187 -1.03755,0.868514 -1.97461,1.271484 -1.96833,0.771674 -4.19718,1.340669 -6.69336,1.697266 l 0.0234,-0.002 c -2.59344,0.30511 -5.01466,1.032437 -7.24023,2.183593 -2.31099,1.195337 -3.73443,3.026095 -3.90625,5.259771 a 0.93200818,0.93200818 0 0 0 0,0.0137 c -0.1477,2.36318 -0.33098,6.50102 -0.55079,12.43554 a 0.93200818,0.93200818 0 0 0 0,0.0117 c -0.14617,5.92025 -0.36674,10.48338 -0.65625,13.66797 a 0.93200818,0.93200818 0 0 0 1.58789,0.74414 c 0.18205,-0.18205 0.75466,-0.62739 1.60547,-1.19531 l 0.01,-0.006 c 9.93082,-6.44962 18.88207,-9.61914 26.83398,-9.61914 6.27604,0 10.84466,1.33215 13.81446,3.84375 2.96979,2.5116 4.47461,6.2453 4.47461,11.48047 0,4.01688 -1.45861,7.60348 -4.47852,10.90429 -3.05254,3.26308 -6.65469,5.66332 -10.8418,7.22461 a 0.93200818,0.93200818 0 0 0 -0.004,0.002 c -4.15253,1.57509 -8.24673,2.35547 -12.30078,2.35547 h -3.92383 l -0.10938,-0.0996 c 0.17289,-0.10367 0.0947,-0.0944 0.50782,-0.2168 0.88903,-0.26342 2.25839,-0.49986 4.05664,-0.67969 a 0.93200818,0.93200818 0 0 0 0.041,-0.0293 c 7.33135,-1.7073 12.91227,-4.26377 16.70117,-7.76563 3.79501,-3.5075 5.73633,-7.99188 5.73633,-13.23242 0,-4.26714 -1.17351,-7.51155 -3.66015,-9.41797 -2.42696,-1.86067 -5.86401,-2.71875 -10.23438,-2.71875 -5.17132,0 -10.70117,1.59509 -16.58398,4.72266 -5.90598,3.13989 -9.90225,6.93773 -11.8418,11.4375 a 0.93200818,0.93200818 0 0 0 -0.0156,0.043 c -0.20965,0.55909 -0.45619,1.15722 -0.73828,1.79297 -0.27713,0.55302 -0.58934,1.10702 -0.9375,1.66407 a 0.93200818,0.93200818 0 0 0 -0.0195,0.0312 c -0.20063,0.3511 -0.51592,0.66567 -0.96875,0.95703 -0.43774,0.21159 -0.92633,0.33203 -1.51758,0.33203 -1.27428,0 -2.03245,-0.34264 -2.57226,-1.00391 -0.53981,-0.66126 -0.88867,-1.77999 -0.88867,-3.44726 0,-0.54398 0.18949,-1.50906 0.60937,-2.77149 l 0.002,-0.01 c 2.44022,-7.10146 3.92128,-14.39351 4.43946,-21.86524 v -0.004 c 0.25484,-3.45722 0.56473,-6.21432 0.92187,-8.25 0.35692,-2.034436 0.81767,-3.37405 1.11133,-3.804691 4e-5,-6e-5 0.002,5.9e-5 0.002,0 0.1762,-0.254108 0.90405,-0.939304 2.07813,-1.775391 1.17472,-0.836541 2.80706,-1.880181 4.88086,-3.117187 2.11114,-1.259278 3.70658,-2.337202 4.81836,-3.273438 0.55589,-0.468118 0.99156,-0.898261 1.31836,-1.333984 0.32679,-0.435724 0.57812,-0.892363 0.57812,-1.464844 0,-0.970037 -0.52808,-1.661439 -1.32031,-2.685547 -0.79223,-1.024108 -1.93785,-2.27769 -3.45508,-3.794922 a 0.93200818,0.93200818 0 0 0 -0.10547,-0.02148 c -2.71147,-2.743211 -3.94797,-4.989885 -4.21875,-6.738281 z"
                 id="path70602" />
              <path
                 style="color:#000000;-inkscape-font-specification:'UnPen, Normal';fill:#000000;stroke:none;stroke-linejoin:miter;-inkscape-stroke:none;paint-order:stroke fill markers"
                 d="m 573.37416,132.01737 q 0,6.37078 -4.72317,11.5333 -4.72316,5.05269 -11.20378,7.46919 -6.37078,2.4165 -12.63171,2.4165 h -4.2838 l -1.20825,-1.09841 q 0.43936,-1.20825 5.93141,-1.75745 h -0.10984 q 21.74852,-5.05269 21.74852,-20.1009 0,-6.1511 -3.29523,-8.67744 -3.29523,-2.52635 -9.66601,-2.52635 -7.46919,0 -16.14663,4.61332 -8.67744,4.61333 -11.42346,10.98411 -0.32952,0.87872 -0.76889,1.86729 -0.43936,0.87873 -0.98857,1.75746 -0.43936,0.76889 -1.31809,1.31809 -0.87873,0.43936 -1.97714,0.43936 -4.39364,0 -4.39364,-5.3822 0,-1.09841 0.65905,-3.07555 3.62475,-10.54474 4.39364,-21.63868 0.76889,-10.434896 2.19682,-12.521875 0.98857,-1.427933 7.2495,-5.162527 6.26094,-3.734594 6.26094,-5.272368 0,-1.318092 -4.50348,-5.821574 v 0.109842 q -4.833,-4.833005 -4.833,-8.238076 0,-0.659046 0.76888,-0.659046 0.76889,0 3.07555,3.185389 0.76889,0.988569 7.57903,5.711733 6.81014,4.613322 6.81014,7.469188 0,2.086979 -3.07555,3.405071 -3.07554,1.208251 -6.91998,1.757456 -3.73459,0.439364 -6.91998,2.086979 -3.18539,1.647615 -3.40507,4.503478 -0.21968,3.51492 -0.54921,12.41204 -0.21968,8.89712 -0.65904,13.73012 0.43936,-0.43936 1.75745,-1.31809 15.04822,-9.77585 27.35041,-9.77585 19.22218,0 19.22218,16.25647 z"
                 id="path70604" />
            </g>
            <g
               id="path70573">
              <path
                 style="color:#000000;-inkscape-font-specification:'UnPen, Normal';fill:#000000;stroke:none;stroke-linejoin:miter;-inkscape-stroke:none;paint-order:stroke fill markers"
                 d="m 204.47852,193.80273 c -0.52983,0 -1.05382,0.10482 -1.49219,0.4336 -0.43837,0.32877 -0.69463,0.86887 -0.75196,1.38476 a 0.93200818,0.93200818 0 0 0 0.0703,0.47071 c 0.21546,0.50275 0.58185,1.37988 1.09375,2.62304 a 0.93200818,0.93200818 0 0 0 0.0273,0.0625 c 0.56845,1.13691 0.98856,2.15521 1.26172,3.04297 a 0.93200818,0.93200818 0 0 0 0.006,0.0195 c 0.26098,0.78295 0.39258,1.5948 0.39258,2.45118 0,0.72078 -0.0993,1.48704 -0.30274,2.30078 a 0.93200818,0.93200818 0 0 0 -0.0156,0.0723 c -0.13748,0.8249 -0.38331,1.85599 -0.74219,3.07617 -0.363,1.16256 -0.58405,1.95079 -0.67773,2.50196 -2.42442,9.13001 -3.64454,18.08912 -3.64454,26.86914 0,2.70521 0.29652,6.46332 0.88477,11.3164 0.58543,4.8298 0.91632,7.78741 0.98438,8.74024 l -0.002,-0.0664 c 0,0.49114 0.0395,1.07032 0.11524,1.75196 0.0728,0.65528 0.14583,1.34696 0.21875,2.07617 a 0.93200818,0.93200818 0 0 0 0.0137,0.0898 c 0.14645,0.73228 0.29299,1.46499 0.43945,2.19727 a 0.93200818,0.93200818 0 0 0 0.0137,0.0625 c 0.23226,0.8516 0.50831,1.60253 0.83594,2.25781 0.34154,0.68305 0.78509,1.2711 1.33399,1.72851 a 0.93200818,0.93200818 0 0 0 0.0547,0.041 c 0.64923,0.46373 1.40949,0.72266 2.18946,0.72266 1.46342,0 2.75382,-0.46922 3.59375,-1.45313 0.83992,-0.98391 1.18359,-2.34867 1.18359,-3.98242 0,-0.49039 -0.086,-1.06852 -0.23828,-1.83008 l 0.0117,0.0801 c -0.0711,-0.64022 -0.10352,-1.13153 -0.10352,-1.43555 0,-2.25128 0.91821,-6.40893 2.8086,-12.22656 l 0.002,-0.006 c 1.99425,-5.98411 3.01172,-10.88948 3.01172,-14.78711 0,-0.7774 -0.0805,-1.42558 -0.38282,-2 -0.30232,-0.57442 -0.98719,-1.01953 -1.64843,-1.01953 a 0.93200818,0.93200818 0 0 0 -0.51563,0.15625 c -0.53282,0.35522 -0.75384,0.83122 -1.0039,1.43555 -0.25007,0.60433 -0.47849,1.36446 -0.70508,2.30859 a 0.93200818,0.93200818 0 0 0 -0.006,0.0352 c -1.43233,7.16167 -3.60215,12.55981 -6.35938,16.39258 -0.0609,-0.31801 -0.12694,-0.51693 -0.17773,-0.96485 -0.1937,-1.70807 -0.29492,-4.31703 -0.29492,-7.77734 0,-7.07102 0.36531,-13.03372 1.08789,-17.875 a 0.93200818,0.93200818 0 0 0 0,-0.002 c 0.71469,-4.85987 2.35525,-9.46317 4.93359,-13.83203 A 0.93200818,0.93200818 0 0 0 212,211.21484 c 0.77519,-1.43964 1.35926,-2.59776 1.75977,-3.49414 0.40051,-0.89638 0.6582,-1.4107 0.6582,-2.11133 0,-1.99519 -1.28528,-4.24879 -3.60352,-7.16601 -2.25795,-2.93358 -4.22344,-4.64063 -6.33593,-4.64063 z m 41.8496,0.55079 c -1.06335,0 -1.91582,0.10588 -2.6289,0.44921 -0.71308,0.34334 -1.26758,1.1116 -1.26758,1.91016 0,0.42048 0.19321,0.73485 0.38867,0.96289 0.19546,0.22804 0.42113,0.40575 0.68555,0.58203 0.52883,0.35256 1.2255,0.69341 2.13476,1.07227 0.44439,0.19126 0.8065,0.40692 1.09375,0.63672 a 0.93200818,0.93200818 0 0 0 0.0664,0.0469 c 0.34989,0.23326 0.57001,0.46825 0.70508,0.69336 a 0.93200818,0.93200818 0 0 0 0.14062,0.17969 c 0.18308,0.18308 0.32644,0.41289 0.4336,0.73437 a 0.93200818,0.93200818 0 0 0 0.0195,0.0508 c 0.11861,0.29651 0.21183,0.63424 0.27539,1.01563 0.065,0.38967 0.0977,0.77647 0.0977,1.16406 a 0.93200818,0.93200818 0 0 0 0.0117,0.1543 c 0.0636,0.38139 0.0977,0.80717 0.0977,1.27539 v 1.42773 c 0,4.24692 -0.0765,7.2402 -0.19922,9.46875 -4.18774,0.56954 -7.89516,0.91211 -10.84179,0.91211 -5.23921,0 -8.88663,-0.92979 -10.95899,-2.54882 a 0.93200818,0.93200818 0 0 0 -0.57422,-0.19727 c 0.23741,0 0.0457,9e-4 -0.14453,-0.0625 -0.24915,-0.083 -0.35051,-0.15625 -0.73437,-0.15625 -0.44823,0 -0.95225,0.12608 -1.31836,0.49219 -0.36611,0.36611 -0.49219,0.87013 -0.49219,1.31836 0,1.83731 1.14421,3.45747 3.05078,4.72851 a 0.93200818,0.93200818 0 0 0 0.0391,0.0234 c 1.90276,1.14166 3.89101,1.98389 5.95703,2.51953 2.02855,0.52591 3.7794,0.79883 5.28516,0.79883 1.69533,0 5.56366,-0.27478 10.75391,-0.70703 0.0967,1.09928 0.17773,2.3903 0.17773,4.38867 0,2.67932 0.18572,6.50074 0.55274,11.49219 a 0.93200818,0.93200818 0 0 0 0,0.002 c 0.32382,4.33922 0.48623,6.7262 0.58007,8.24414 -0.43651,-0.034 -0.73032,-0.039 -1.40234,-0.12305 -1.18824,-0.14852 -2.04123,-0.22656 -2.64258,-0.22656 -6.70172,0 -11.78228,0.78269 -15.31445,2.48047 -3.53217,1.69778 -5.5,4.49929 -5.5,8.00781 0,3.23391 1.72222,5.84323 4.82031,7.42188 3.0981,1.57865 7.52994,2.29687 13.35742,2.29687 4.37657,0 7.80017,-0.93788 10.15625,-2.96484 2.12791,-1.76474 3.09861,-4.69828 3.32422,-8.32813 1.68178,0.52858 3.77002,1.67523 6.35352,3.82813 1.54895,1.29079 2.78859,2.26412 3.74218,2.93164 0.4768,0.33376 0.8792,0.58991 1.23633,0.7793 0.35714,0.18939 0.62316,0.34961 1.10938,0.34961 1.13238,0 2.13588,-0.26745 2.85742,-0.93555 0.72154,-0.6681 1.04102,-1.6591 1.04102,-2.74219 0,-2.4317 -1.63386,-4.61963 -4.47461,-6.53906 -2.7168,-1.83567 -6.69521,-3.51509 -11.81446,-5.11328 -0.76435,-11.08556 -1.17578,-18.97716 -1.17578,-23.0586 v -3.33203 c 1.68005,-0.18216 4.02475,-0.68617 8,-1.8125 a 0.93200818,0.93200818 0 0 0 0.0137,-0.004 c 2.24232,-0.6727 3.95055,-1.36198 5.17383,-2.13672 1.22328,-0.77474 2.08008,-1.73146 2.08008,-2.92969 0,-0.81264 -0.31816,-1.59772 -0.83984,-2.29883 -0.54565,-0.802 -1.36553,-1.3789 -2.28907,-1.3789 -1.9516,0 -4.369,0.58711 -7.35547,1.70703 -2.31814,0.8693 -3.55149,1.24097 -4.61328,1.54297 0.0769,-5.05809 0.49341,-8.74253 1.1875,-10.41993 a 0.93200818,0.93200818 0 0 0 0.0137,-0.0332 c 0.26087,-0.7081 0.45781,-1.29091 0.5957,-1.76367 0.13789,-0.47276 0.23047,-0.7948 0.23047,-1.19531 0,-2.31108 -1.08159,-4.24907 -3.03711,-5.41407 -1.95552,-1.16499 -4.68649,-1.66796 -8.22071,-1.66796 z m -41.8496,1.31445 c 0.96087,0 2.73053,1.14736 4.86328,3.91992 a 0.93200818,0.93200818 0 0 0 0.01,0.0117 c 2.21935,2.79208 3.20313,4.93055 3.20313,6.00976 0,-0.1148 -0.12772,0.52515 -0.4961,1.34961 -0.36837,0.82446 -0.93663,1.95488 -1.69922,3.3711 l 0.0176,-0.0312 c -2.69402,4.56487 -4.42201,9.40878 -5.17187,14.50781 -0.74179,4.97084 -1.10938,11.0142 -1.10938,18.14844 0,3.49628 0.0995,6.14287 0.3086,7.98633 0.10452,0.92172 0.23122,1.63936 0.41797,2.21093 0.0934,0.28579 0.1969,0.53744 0.36914,0.78125 0.17223,0.24381 0.45883,0.51738 0.8789,0.59375 a 0.93200818,0.93200818 0 0 0 0.88086,-0.31836 c 3.51234,-4.19953 6.03029,-10.3741 7.66016,-18.5039 0.18001,-0.75004 0.35393,-1.27264 0.51953,-1.71875 0.0198,0.16073 0.0605,0.18386 0.0605,0.40234 0,3.57014 -0.9594,8.32738 -2.91797,14.20313 a 0.93200818,0.93200818 0 0 0 -0.004,0.008 c -1.91591,5.89509 -2.90039,10.08132 -2.90039,12.80859 0,0.42827 0.0399,0.96276 0.11523,1.64063 a 0.93200818,0.93200818 0 0 0 0.0117,0.0801 c 0.1406,0.70298 0.20313,1.22296 0.20313,1.46484 0,1.36857 -0.29673,2.25619 -0.73828,2.77344 -0.44155,0.51724 -1.07625,0.79883 -2.17578,0.79883 -0.38069,0 -0.71079,-0.11299 -1.07422,-0.36524 -0.31848,-0.27216 -0.60032,-0.62252 -0.83789,-1.09766 -0.25552,-0.51103 -0.48972,-1.14541 -0.69532,-1.89453 -0.1406,-0.70298 -0.28128,-1.40639 -0.42187,-2.10937 -0.072,-0.7181 -0.14473,-1.40409 -0.2168,-2.05274 -0.0707,-0.63645 -0.10547,-1.15732 -0.10547,-1.54492 a 0.93200818,0.93200818 0 0 0 -0.002,-0.0664 c -0.0784,-1.09753 -0.40598,-3.99582 -0.99219,-8.83204 -0.58338,-4.8129 -0.87304,-8.52464 -0.87304,-11.09179 0,-8.6279 1.1963,-17.44259 3.59375,-26.45117 a 0.93200818,0.93200818 0 0 0 0.0195,-0.0879 c 0.0539,-0.32343 0.26739,-1.13415 0.6289,-2.29102 a 0.93200818,0.93200818 0 0 0 0.004,-0.0156 c 0.36719,-1.24842 0.62482,-2.31793 0.78125,-3.24023 0.23266,-0.93671 0.35547,-1.85045 0.35547,-2.73437 0,-1.04688 -0.16386,-2.06317 -0.48828,-3.03711 -0.31256,-1.01168 -0.76723,-2.11063 -1.36719,-3.31055 -0.42521,-1.03223 -0.70504,-1.7039 -0.92578,-2.22461 0.0297,-0.0144 0.081,-0.0508 0.31055,-0.0508 z m 41.8496,0.54883 c 3.34915,0 5.78142,0.52087 7.26758,1.40625 1.48616,0.88537 2.12696,2.02285 2.12696,3.8125 0,-0.0344 -0.0378,0.26786 -0.15625,0.67382 -0.11841,0.40597 -0.30493,0.95741 -0.55664,1.64063 l 0.0137,-0.0352 c -0.99593,2.40684 -1.38867,6.46203 -1.38867,12.43946 a 0.93200818,0.93200818 0 0 0 1.12695,0.91211 c 1.15853,-0.24826 3.12102,-0.91184 6.06445,-2.01563 2.87172,-1.07689 5.13787,-1.58984 6.70117,-1.58984 0.23636,0 0.43035,0.0742 0.76368,0.57422 a 0.93200818,0.93200818 0 0 0 0.0293,0.043 c 0.3499,0.46653 0.47266,0.84443 0.47266,1.19727 0,0.26632 -0.24131,0.73889 -1.21485,1.35547 -0.9727,0.61605 -2.55851,1.27895 -4.70703,1.92383 -0.002,5.5e-4 -0.002,0.001 -0.004,0.002 -4.36158,1.23517 -7.29495,1.87819 -8.45899,1.93945 a 0.93200818,0.93200818 0 0 0 -0.88281,0.93164 v 4.0625 c 0,4.30609 0.40488,12.21323 1.21094,23.79102 a 0.93200818,0.93200818 0 0 0 0.6582,0.82617 c 5.36827,1.63225 9.36334,3.35767 11.94141,5.09961 2.57806,1.74194 3.65429,3.39834 3.65429,4.99414 0,0.7476 -0.17633,1.12776 -0.44336,1.375 -0.26702,0.24725 -0.74704,0.43945 -1.59179,0.43945 0.1933,0 0.0107,-0.002 -0.23633,-0.13281 -0.24699,-0.13098 -0.60247,-0.35317 -1.04102,-0.66015 -0.87708,-0.61396 -2.09059,-1.56378 -3.61718,-2.83594 -3.13703,-2.61418 -5.77968,-4.17759 -8.1211,-4.5957 a 0.93200818,0.93200818 0 0 0 -1.0957,0.91796 c 0,4.01592 -1.00324,6.65328 -2.84766,8.17969 a 0.93200818,0.93200818 0 0 0 -0.0156,0.0117 c -1.89088,1.63007 -4.83398,2.51953 -8.94727,2.51953 -5.66919,0 -9.85952,-0.74526 -12.50976,-2.0957 -2.65025,-1.35044 -3.80274,-3.13549 -3.80274,-5.75977 0,-2.86225 1.34651,-4.83856 4.44141,-6.32617 3.0949,-1.4876 7.9554,-2.29883 14.50781,-2.29883 0.42384,0 1.25512,0.0685 2.41016,0.21289 1.18823,0.14854 2.04123,0.22657 2.64258,0.22657 a 0.93200818,0.93200818 0 0 0 0.92968,-0.98243 c -0.0744,-1.34004 -0.2939,-4.4457 -0.66015,-9.35351 -0.36525,-4.96746 -0.54688,-8.76244 -0.54688,-11.35547 0,-2.43533 -0.0703,-4.24817 -0.22656,-5.49805 a 0.93200818,0.93200818 0 0 0 -1.00391,-0.8125 c -5.99695,0.51193 -9.89759,0.76563 -11.56445,0.76563 -1.27687,0 -2.89262,-0.23902 -4.81836,-0.73828 -1.88073,-0.4876 -3.69126,-1.25599 -5.44336,-2.30469 -1.54841,-1.03749 -2.14679,-2.02325 -2.17969,-3.07617 0.0473,0.008 -0.0201,-8.5e-4 0.0645,0.0273 0.12127,0.0404 0.25663,0.0474 0.35742,0.0762 2.61808,1.94784 6.57887,2.82617 11.91016,2.82617 3.28553,0 7.24137,-0.3347 11.88476,-0.99804 a 0.93200818,0.93200818 0 0 0 0.79883,-0.86133 c 0.14906,-2.31052 0.2207,-5.76158 0.2207,-10.38477 v -1.42773 c 0,-0.50607 -0.0412,-0.98072 -0.10937,-1.4375 -4.3e-4,-0.48855 -0.042,-0.97642 -0.12305,-1.46289 -0.0809,-0.48549 -0.20512,-0.94032 -0.37305,-1.36719 -0.17375,-0.51293 -0.45781,-0.96611 -0.8164,-1.34961 -0.29418,-0.4544 -0.6834,-0.85049 -1.16407,-1.17578 -0.4352,-0.34245 -0.93233,-0.63423 -1.49414,-0.875 a 0.93200818,0.93200818 0 0 0 -0.008,-0.004 c -0.84819,-0.35341 -1.46846,-0.66908 -1.81836,-0.90234 -0.0785,-0.0523 -0.0875,-0.0692 -0.13672,-0.10937 0.0192,-0.022 -0.0317,-0.0492 0.10547,-0.11524 0.27549,-0.13264 0.90653,-0.26562 1.82031,-0.26562 z m -3.625,55.91211 c -4.377,0 -7.69107,0.38266 -10.03906,1.23828 -1.17399,0.42781 -2.11955,0.98006 -2.79883,1.72265 -0.67927,0.7426 -1.05468,1.69501 -1.05468,2.69532 0,0.92046 0.37043,1.80198 1.01757,2.47265 0.64715,0.67068 1.53337,1.15798 2.63086,1.53711 2.19499,0.75827 5.28408,1.0957 9.36524,1.0957 3.53421,0 6.0232,-0.44656 7.53515,-1.76953 a 0.93200818,0.93200818 0 0 0 0.0234,-0.0215 c 1.50427,-1.41025 2.11859,-3.86804 2.26953,-7.33984 a 0.93200818,0.93200818 0 0 0 -0.82812,-0.96485 c -0.98418,-0.10935 -1.73809,-0.20229 -2.25391,-0.27344 -0.25791,-0.0356 -0.45772,-0.0646 -0.58594,-0.0879 -0.12821,-0.0233 -0.28637,-0.11389 -0.0312,0.0137 a 0.93200818,0.93200818 0 0 0 -0.35351,-0.0957 c -2.20642,-0.14709 -3.82693,-0.22265 -4.89649,-0.22265 z m 0,1.86328 c 0.9768,0 2.57843,0.0741 4.75196,0.21875 0.0471,0.005 0.13303,0.043 0.19726,0.0547 0.17385,0.0316 0.39108,0.0659 0.66407,0.10352 0.31998,0.0441 0.87746,0.10618 1.34961,0.16211 -0.22894,2.66243 -0.80596,4.48624 -1.55079,5.19336 -0.83739,0.72383 -2.95351,1.30273 -6.29101,1.30273 -3.97384,0 -6.92334,-0.36108 -8.75586,-0.99414 -0.91626,-0.31652 -1.54066,-0.6975 -1.90039,-1.07031 -0.35973,-0.37281 -0.49414,-0.70688 -0.49414,-1.17773 0,-0.57408 0.16558,-0.99931 0.5664,-1.4375 0.40083,-0.4382 1.07629,-0.87109 2.0625,-1.23047 1.97243,-0.71877 5.13659,-1.125 9.40039,-1.125 z"
                 id="path70608" />
              <path
                 style="color:#000000;-inkscape-font-specification:'UnPen, Normal';fill:#000000;stroke:none;stroke-linejoin:miter;-inkscape-stroke:none;paint-order:stroke fill markers"
                 d="m 271.92158,260.20084 q 0,2.74603 -2.9657,2.74603 -0.87873,0 -5.49205,-3.84444 -4.61333,-3.84443 -7.68887,-4.39364 0,6.26094 -3.18539,8.89712 -3.18539,2.74603 -9.55617,2.74603 -17.24504,0 -17.24504,-8.78728 0,-9.55617 19.88122,-9.55617 0.76889,0 2.52635,0.21968 1.75745,0.21969 2.52634,0.21969 -0.10984,-1.97714 -0.65905,-9.33649 -0.5492,-7.46919 -0.5492,-11.42346 0,-3.62476 -0.21968,-5.38221 -9.00696,0.76888 -11.64315,0.76888 -2.08698,0 -5.05269,-0.76888 -2.9657,-0.76889 -5.71173,-2.41651 -2.63618,-1.75745 -2.63618,-3.95427 0,-0.87873 0.87873,-0.87873 0.10984,0 0.43936,0.10984 0.32952,0.10984 0.43936,0.10984 3.51492,2.74603 11.53331,2.74603 4.833,0 11.75299,-0.98857 0.21968,-3.40507 0.21968,-10.32506 0,-0.76888 0,-1.42793 0,-0.76889 -0.10984,-1.42793 0,-0.65905 -0.10984,-1.31809 -0.10984,-0.65905 -0.32953,-1.20825 -0.21968,-0.65905 -0.65904,-1.09841 -0.32952,-0.54921 -0.98857,-0.98857 -0.54921,-0.43937 -1.31809,-0.76889 -2.63619,-1.09841 -2.63619,-1.75746 0,-1.42793 2.96571,-1.42793 10.32505,0 10.32505,6.1511 0,0.5492 -0.76888,2.63618 -1.31809,3.18539 -1.31809,12.08251 1.53777,-0.32952 5.93141,-1.97714 4.39364,-1.64761 7.02982,-1.64761 0.87873,0 1.53778,0.98857 0.65904,0.87872 0.65904,1.75745 0,2.19682 -6.59046,4.17396 -6.59046,1.8673 -8.67744,1.97714 v 4.06412 q 0,6.37077 1.20826,23.72565 16.25646,4.94285 16.25646,10.9841 z m -21.19931,-6.48062 q -2.96571,-0.32952 -3.18539,-0.43936 -3.29523,-0.21968 -4.833,-0.21968 -12.96124,0 -12.96124,4.72316 0,4.17396 12.08251,4.17396 5.16253,0 6.91998,-1.53777 1.75746,-1.64762 1.97714,-6.70031 z m -40.42149,7.68887 q 0,0.54921 0.10984,1.53778 0.21968,1.09841 0.21968,1.64761 0,4.50348 -3.84443,4.50348 -0.87873,0 -1.64762,-0.5492 -0.65904,-0.54921 -1.09841,-1.42793 -0.43936,-0.87873 -0.76888,-2.08698 -0.21969,-1.09841 -0.43937,-2.19682 -0.10984,-1.09841 -0.21968,-2.08698 -0.10984,-0.98857 -0.10984,-1.64762 -0.10984,-1.53777 -0.98857,-8.78728 -0.87873,-7.2495 -0.87873,-11.20378 0,-13.07108 3.62476,-26.69136 0.10984,-0.65905 0.65904,-2.41651 0.54921,-1.86729 0.76889,-3.18538 0.32952,-1.3181 0.32952,-2.52635 0,-1.42793 -0.43936,-2.74602 -0.43937,-1.42794 -1.31809,-3.18539 -0.76889,-1.8673 -1.09841,-2.63619 0.10984,-0.98856 1.31809,-0.98856 2.30666,0 5.60189,4.28379 3.40507,4.2838 3.40507,6.59046 0,0.87873 -2.30666,5.16253 -3.95428,6.7003 -5.05269,14.16949 -1.09841,7.35935 -1.09841,18.01393 0,10.43489 1.20825,10.65457 5.05269,-6.04125 7.46919,-18.12376 0.65905,-2.74603 1.31809,-3.18539 1.09841,0 1.09841,2.08698 0,5.60189 -2.9657,14.49901 -2.85587,8.78728 -2.85587,12.52187 z"
                 id="path70610" />
            </g>
            <g
               id="path70575">
              <path
                 style="color:#000000;-inkscape-font-specification:'UnPen, Normal';fill:#000000;stroke:none;stroke-linejoin:miter;-inkscape-stroke:none;paint-order:stroke fill markers"
                 d="m 314.31836,189.74023 c -0.75396,0 -1.40335,0.092 -1.96875,0.4375 -0.5654,0.34552 -0.94141,1.04427 -0.94141,1.70118 0,0.86316 0.5287,1.43453 1.19727,2.01953 0.56719,0.4963 1.17542,1.068 1.82226,1.71484 a 0.93200818,0.93200818 0 0 0 0.0762,0.0703 c 0.48674,0.3894 1.12243,1.38033 1.67968,2.98243 0.54177,1.55756 0.82618,3.47071 0.82618,5.73632 0,1.07457 -0.18092,4.92834 -0.54688,11.36914 a 0.93200818,0.93200818 0 0 0 0,0.0137 c -0.43966,10.11219 -0.66016,17.73418 -0.66016,22.88671 0,2.49887 0.0355,4.67004 0.10938,6.51758 0.0745,1.86142 0.2604,4.18472 0.55469,6.98047 a 0.93200818,0.93200818 0 0 0 0.002,0.0234 c 0.3729,2.834 0.93506,5.27857 1.69922,7.3418 0.75466,2.03757 1.73387,4.03359 2.93555,5.98632 1.2541,2.03792 2.97159,3.59877 5.09375,4.625 2.12192,1.09904 4.54749,1.64063 7.23242,1.64063 8.76034,0 17.71724,-2.77439 26.83203,-8.25586 l 0.0117,-0.006 c 4.34889,-2.54371 7.63246,-4.83528 9.875,-6.92578 2.24469,-2.09251 3.53711,-4.0069 3.53711,-5.95508 v -0.43945 a 0.93200818,0.93200818 0 0 0 -0.41602,-0.77539 c -0.46919,-0.31279 -0.81444,-0.52604 -1.21094,-0.65821 a 0.93200818,0.93200818 0 0 0 -0.29297,-0.0469 c -0.63707,0 -1.26915,0.35996 -1.65429,0.875 -6.67642,4.78873 -12.95439,8.41216 -18.80469,10.83789 -5.88331,2.43942 -12.34557,3.66406 -19.41406,3.66406 -3.98321,0 -6.3244,-1.13787 -7.5293,-3.35742 -1.27946,-2.3569 -1.97461,-5.79872 -1.97461,-10.31836 0,-10.80405 0.58472,-22.34658 1.75391,-34.62305 0.73019,-6.78856 1.33112,-11.14364 1.73633,-12.83203 0.51339,-1.90954 0.79492,-3.16552 0.79492,-4.06054 0,-3.16303 -1.34533,-5.67157 -3.875,-7.06641 -2.36221,-1.41286 -5.20885,-2.10352 -8.48047,-2.10352 z m 0,1.86329 c 3.01873,0 5.51068,0.62672 7.53906,1.84375 a 0.93200818,0.93200818 0 0 0 0.0312,0.0176 c 1.99985,1.09669 2.91992,2.75697 2.91992,5.44532 0,0.41743 -0.23075,1.72371 -0.73632,3.60156 a 0.93200818,0.93200818 0 0 0 -0.006,0.0254 c -0.47314,1.97142 -1.04391,6.25711 -1.77735,13.07812 a 0.93200818,0.93200818 0 0 0 -0.002,0.0117 c -1.17409,12.3279 -1.76172,23.92762 -1.76172,34.79883 0,4.70701 0.69605,8.43999 2.19922,11.20899 1.57774,2.90636 4.80327,4.33007 9.16797,4.33007 7.28404,0 14.00293,-1.26464 20.1289,-3.80468 6.08956,-2.52494 12.55529,-6.26076 19.41016,-11.19922 a 0.93200818,0.93200818 0 0 0 0.16602,-0.28711 c 0.0143,-0.0275 0.0479,-0.0186 0.0547,-0.0274 0.0297,0.0145 0.0966,0.0566 0.14063,0.0801 -0.0357,1.05443 -0.88367,2.61521 -2.91602,4.50977 -2.07572,1.93499 -5.26899,4.1795 -9.55468,6.68554 a 0.93200818,0.93200818 0 0 0 -0.01,0.006 c -8.89511,5.35153 -17.51169,7.9961 -25.88281,7.9961 -2.43871,0 -4.54981,-0.48416 -6.38086,-1.4336 a 0.93200818,0.93200818 0 0 0 -0.0254,-0.0117 c -1.82317,-0.87783 -3.24669,-2.16992 -4.33203,-3.9336 -1.14159,-1.85509 -2.06746,-3.73955 -2.77735,-5.65625 -0.69899,-1.88727 -1.23437,-4.19966 -1.59375,-6.92383 -0.2908,-2.76424 -0.47302,-5.05222 -0.54492,-6.84961 -0.0726,-1.81382 -0.10937,-3.96277 -0.10937,-6.44336 0,-5.09622 0.21966,-12.70346 0.6582,-22.79296 v -0.0137 c 0.36545,-6.43315 0.55078,-10.19568 0.55078,-11.46289 0,-2.42093 -0.30177,-4.53677 -0.93164,-6.34765 -0.61439,-1.76636 -1.29759,-3.04394 -2.27539,-3.82617 l 0.0781,0.0684 c -0.67124,-0.67124 -1.30768,-1.27189 -1.91211,-1.80078 -0.50306,-0.44018 -0.56054,-0.74808 -0.56054,-0.61718 0,-0.14859 -0.0468,-0.0521 0.0469,-0.10938 0.0936,-0.0572 0.43392,-0.16601 0.99805,-0.16601 z m 32.73242,11.75585 c -0.44823,10e-6 -0.92449,0.12592 -1.29687,0.42383 -0.37239,0.29791 -0.5964,0.72739 -0.70508,1.16211 a 0.93200818,0.93200818 0 0 0 -0.0293,0.22461 c 0,0.64292 0.28276,1.32503 0.80859,1.72461 0.1805,0.16903 0.37206,0.32942 0.59571,0.47852 a 0.93200818,0.93200818 0 0 0 0.0996,0.0586 l 0.54687,0.27344 c 0.20179,0.15218 0.76838,0.76565 1.46875,1.76367 0.70968,1.01129 1.59804,2.4139 2.65235,4.19531 1.0857,1.83447 2.09534,3.23402 3.08203,4.22071 0.98669,0.98668 1.98876,1.61914 3.10156,1.61914 1.05346,0 2.02951,-0.32984 2.67383,-1.05469 0.64431,-0.72486 0.89453,-1.71712 0.89453,-2.84375 0,-2.50052 -0.99411,-4.63712 -2.88281,-6.11524 -1.10072,-0.86484 -2.94192,-2.0375 -5.58203,-3.57812 l -0.004,-0.002 c -1.33073,-0.81311 -2.41831,-1.42777 -3.28516,-1.85157 -0.86785,-0.42428 -1.42948,-0.69921 -2.13867,-0.69922 z m 0,1.86524 c -0.0501,0 0.54055,0.1266 1.32031,0.50781 0.77976,0.38122 1.83337,0.975 3.13672,1.77149 a 0.93200818,0.93200818 0 0 0 0.0156,0.01 c 2.62043,1.52859 4.44013,2.69766 5.38672,3.44141 a 0.93200818,0.93200818 0 0 0 0,0.002 c 1.47974,1.15806 2.16992,2.60886 2.16992,4.64844 0,0.8505 -0.18942,1.34176 -0.42383,1.60547 -0.23441,0.26371 -0.57726,0.42773 -1.28125,0.42773 -0.35174,0 -0.97778,-0.26488 -1.78516,-1.07226 -0.80738,-0.80738 -1.75704,-2.0979 -2.79492,-3.85157 -1.06928,-1.80672 -1.9756,-3.24267 -2.73047,-4.31836 -0.75486,-1.07568 -1.30481,-1.77815 -1.91601,-2.22265 a 0.93200818,0.93200818 0 0 0 -0.13282,-0.0801 l -0.58203,-0.29102 c -0.16444,-0.11191 -0.29665,-0.21657 -0.38281,-0.30273 a 0.93200818,0.93200818 0 0 0 -0.0996,-0.0859 c -0.0343,-0.0257 -0.0327,-0.10125 -0.041,-0.15429 4.3e-4,-2.2e-4 0.009,-0.0222 0.008,-0.0215 -0.006,0.005 -0.005,-0.0137 0.13281,-0.0137 z m -8.23828,1.54101 c -0.89646,0 -1.76477,0.64161 -2.08008,1.48243 a 0.93200818,0.93200818 0 0 0 0.006,0.67382 l 0.43945,1.09766 a 0.93200818,0.93200818 0 0 0 0.2168,0.11914 l -0.0644,0.0234 c 1.82928,2.18106 3.3936,4.87562 4.68164,8.0957 a 0.93200818,0.93200818 0 0 0 0.0137,0.0352 c 0.79136,1.77114 1.57847,3.12996 2.42773,4.10351 0.84927,0.97356 1.83047,1.60938 2.92774,1.60938 1.10793,0 2.13496,-0.39344 2.7832,-1.19727 0.64825,-0.80382 0.89453,-1.87839 0.89453,-3.13867 0,-2.27316 -1.65932,-4.749 -4.64453,-7.88476 -2.98976,-3.214 -5.33658,-5.01953 -7.60156,-5.01954 z m 0,1.86329 c 1.10347,0 3.36986,1.34222 6.23828,4.42578 a 0.93200818,0.93200818 0 0 0 0.006,0.008 c 2.86795,3.01135 4.13672,5.3677 4.13672,6.60742 0,1.00977 -0.21142,1.63756 -0.47852,1.96875 -0.26709,0.3312 -0.61124,0.50391 -1.33398,0.50391 -0.36727,0 -0.87155,-0.22342 -1.52344,-0.97071 -0.65189,-0.74728 -1.38445,-1.97008 -2.13086,-3.64062 -1.34245,-3.34678 -2.9916,-6.2015 -4.95703,-8.54883 l -0.0957,-0.24023 c 0.0352,-0.012 0.0249,-0.11328 0.13867,-0.11328 z"
                 id="path70614" />
              <path
                 style="color:#000000;-inkscape-font-specification:'UnPen, Normal';fill:#000000;stroke:none;stroke-linejoin:miter;-inkscape-stroke:none;paint-order:stroke fill markers"
                 d="m 360.01174,215.6054 q 0,2.9657 -2.63618,2.9657 -2.19682,0 -5.38221,-5.38221 -3.18539,-5.38221 -4.39364,-6.26093 -0.21968,-0.10984 -0.65905,-0.32953 -0.32952,-0.21968 -0.5492,-0.43936 -0.43937,-0.32952 -0.43937,-0.98857 0.21969,-0.87873 1.09841,-0.87873 0.98857,0 4.94285,2.4165 3.95428,2.30667 5.49205,3.51492 2.52634,1.97713 2.52634,5.38221 z m -9.88569,4.06411 q 0,3.40507 -2.74602,3.40507 -2.19682,0 -4.50348,-5.16252 -1.97714,-4.94285 -4.83301,-8.34792 v 0.10984 l -0.43936,-1.09841 q 0.32952,-0.87873 1.20825,-0.87873 2.52634,0 6.91998,4.72317 4.39364,4.61332 4.39364,7.2495 z m 22.62725,30.97517 q 0,4.50348 -12.96124,12.08251 -13.51044,8.12823 -26.36184,8.12823 -3.84444,0 -6.81014,-1.53777 -2.96571,-1.42794 -4.72317,-4.2838 -1.75745,-2.85587 -2.85586,-5.82158 -1.09841,-2.9657 -1.64762,-7.13966 -0.43936,-4.17396 -0.5492,-6.91998 -0.10984,-2.74603 -0.10984,-6.48062 0,-7.68887 0.65904,-22.84693 0.54921,-9.66601 0.54921,-11.42347 0,-3.51491 -0.87873,-6.04125 -0.87873,-2.52634 -1.97714,-3.40507 -0.98857,-0.98857 -1.86729,-1.75746 -0.87873,-0.76889 -0.87873,-1.31809 0,-1.20825 1.97714,-1.20825 4.72316,0 8.01839,1.97714 3.40507,1.86729 3.40507,6.26093 0,0.98857 -0.76889,3.84444 -0.65904,2.74602 -1.75745,12.96124 -1.75746,18.45329 -1.75746,34.70975 0,6.91999 2.08698,10.76442 2.08698,3.84444 8.34792,3.84444 10.76441,0 19.77138,-3.7346 9.00696,-3.73459 19.22217,-11.09394 h -0.10984 q 0.32952,-0.5492 0.98857,-0.5492 0.32952,0.10984 0.98857,0.5492 z"
                 id="path70616" />
            </g>
            <g
               id="path70577">
              <path
                 style="color:#000000;-inkscape-font-specification:'UnPen, Normal';fill:#000000;stroke:none;stroke-linejoin:miter;-inkscape-stroke:none;paint-order:stroke fill markers"
                 d="m 440.63281,193.03516 c -0.90289,0 -1.61699,0.069 -2.23437,0.31054 -0.3087,0.1208 -0.6059,0.29306 -0.84375,0.57227 -0.23785,0.27921 -0.38086,0.67388 -0.38086,1.03711 0,0.46374 0.13804,0.54395 0.22461,0.67773 0.0866,0.13378 0.18292,0.25364 0.29883,0.39063 0.23181,0.27396 0.54625,0.60679 0.95898,1.01953 a 0.93200818,0.93200818 0 0 0 0.0625,0.0566 c 0.80831,0.67359 1.64115,1.57231 2.48633,2.69922 a 0.93200818,0.93200818 0 0 0 0.0176,0.0215 c 0.77776,0.97219 1.11328,1.88556 1.11328,2.82422 0,1.30848 -0.81821,4.53085 -2.43164,9.10742 -0.75535,0.21295 -1.91927,0.51196 -3.87696,0.96875 -6.61637,1.53242 -12.50524,4.10597 -17.77148,7.54492 -0.31287,-0.84629 -0.75871,-2.27065 -1.3125,-5.1621 v -0.002 c -0.66616,-3.55233 -1.51969,-6.70958 -2.56641,-9.47851 -0.50123,-1.4241 -1.08586,-2.54507 -1.83593,-3.36133 -0.75179,-0.81813 -1.7309,-1.31836 -2.77344,-1.31836 -0.42882,0 -0.89527,0.091 -1.27344,0.42187 -0.37816,0.3309 -0.53711,0.8455 -0.53711,1.2793 a 0.93200818,0.93200818 0 0 0 0.0645,0.3418 c 1.05215,2.66543 2.00104,6.68085 2.80079,11.98828 a 0.93200818,0.93200818 0 0 0 0.002,0.0137 c 0.832,5.06133 1.31693,7.88186 1.5664,9.17774 -8.6876,7.11035 -13.2207,14.90638 -13.2207,23.29296 0,4.80985 0.64876,8.48959 2.0957,11.08204 1.44695,2.59244 3.82968,4.01953 6.74415,4.01953 4.69794,0 10.48705,-4.0911 17.84765,-11.76172 2.29961,2.17084 4.30702,3.52344 6.20703,3.52344 1.08309,0 2.07605,-0.31752 2.74414,-1.03907 0.6681,-0.72154 0.9336,-1.72504 0.9336,-2.85742 0,-1.31442 -0.80323,-2.53437 -2.11133,-3.92187 -0.89763,-1.06425 -1.5778,-1.71002 -2.25586,-2.33789 5.71762,-7.43237 10.50602,-15.94939 14.37109,-25.54102 h 0.70899 a 0.93200818,0.93200818 0 0 0 0.10156,-0.006 c 0.64398,-0.0715 1.11092,-0.10547 1.32617,-0.10547 6.78329,0 12.4767,1.87301 17.21485,5.6211 4.69822,3.71649 7.00586,8.7203 7.00586,15.30664 0,2.94242 -0.62549,5.72608 -1.88672,8.38867 -1.26401,2.66846 -3.05181,5.05445 -5.38477,7.17578 -7e-4,6.4e-4 -0.001,0.001 -0.002,0.002 -2.38384,2.09401 -4.72577,3.89451 -7.02344,5.40235 -2.30409,1.51206 -4.94335,2.99523 -7.91602,4.44531 a 0.93200818,0.93200818 0 0 0 -0.008,0.004 c -1.189,0.59451 -2.08987,1.0881 -2.73242,1.50977 -0.32127,0.21084 -0.57653,0.39976 -0.79492,0.61133 -0.21839,0.21156 -0.50391,0.43097 -0.50391,1.01953 0,0.42881 0.0929,0.89332 0.42383,1.27148 0.3309,0.37817 0.84354,0.53907 1.27734,0.53907 4.47369,0 10.13558,-2.09998 17.16211,-6.16797 v 0.002 c 10.59006,-6.11539 16.0625,-14.43015 16.0625,-24.64258 0,-8.28693 -3.18889,-15.10173 -9.45703,-20.16406 l -0.006,-0.004 c -6.23709,-5.10782 -13.65418,-7.67578 -22.11328,-7.67578 -0.3242,0 -0.758,0.045 -1.25586,0.10352 0.64236,-1.96714 1.24365,-3.83742 1.60352,-5.12695 0.4464,-1.59961 0.69336,-2.60201 0.69336,-3.38086 0,-2.22454 -1.15495,-4.3934 -3.23438,-6.47461 -2.0094,-2.08405 -4.15126,-3.24414 -6.375,-3.24414 z m 0,1.86328 c 1.58133,0 3.24477,0.81435 5.04102,2.67968 a 0.93200818,0.93200818 0 0 0 0.0117,0.0137 c 1.87137,1.87137 2.69336,3.58078 2.69336,5.16211 0,0.24632 -0.19268,1.33169 -0.625,2.88086 -0.43233,1.54916 -1.08899,3.64389 -1.96485,6.27148 a 0.93200818,0.93200818 0 0 0 0.88477,1.22656 h 1.20898 a 0.93200818,0.93200818 0 0 0 0.11524,-0.008 c 0.56685,-0.0709 0.98788,-0.10352 1.20312,-0.10352 8.08775,0 15.02001,2.41171 20.9375,7.25977 a 0.93200818,0.93200818 0 0 0 0.006,0.004 c 5.88391,4.74966 8.76953,10.89618 8.76953,18.71679 0,9.55893 -4.92438,17.13346 -15.13086,23.02735 a 0.93200818,0.93200818 0 0 0 -0.002,0.002 c -6.4896,3.75713 -11.66675,5.62204 -15.49023,5.83203 0.5319,-0.34145 1.32011,-0.78381 2.41601,-1.33203 l 0.008,-0.004 c 3.02852,-1.4777 5.73307,-2.99657 8.11328,-4.55859 2.38494,-1.56511 4.79924,-3.42371 7.24415,-5.57227 a 0.93200818,0.93200818 0 0 0 0.0117,-0.01 c 2.49901,-2.27183 4.44462,-4.86376 5.81641,-7.75977 1.37496,-2.90267 2.06641,-5.97686 2.06641,-9.18554 0,-7.03393 -2.59866,-12.722 -7.71289,-16.76758 -5.07431,-4.01401 -11.24121,-6.02344 -18.3711,-6.02344 -0.35166,0 -0.83143,0.0416 -1.45312,0.10938 h -1.29297 a 0.93200818,0.93200818 0 0 0 -0.86719,0.58789 c -3.88985,9.79667 -8.74337,18.42965 -14.54492,25.92187 a 0.93200818,0.93200818 0 0 0 -0.0762,0.0156 l -0.21875,0.2207 a 0.93200818,0.93200818 0 0 0 0.0762,1.38672 c 0.64057,0.51245 1.57308,1.47045 2.72461,2.83789 a 0.93200818,0.93200818 0 0 0 0.0351,0.0391 c 1.17389,1.24294 1.61329,2.2176 1.61329,2.65625 0,0.84476 -0.19026,1.32282 -0.4375,1.58984 -0.24725,0.26703 -0.62936,0.44336 -1.37696,0.44336 -1.1168,0 -3.10764,-1.07834 -5.60156,-3.57226 a 0.93200818,0.93200818 0 0 0 -1.33594,0.0195 c -7.55622,7.99216 -13.45914,11.79102 -17.11718,11.79102 -2.35791,0 -3.92796,-0.93375 -5.11719,-3.06446 -1.18924,-2.13071 -1.85938,-5.53736 -1.85938,-10.17383 0,-7.86585 4.21749,-15.23496 12.94141,-22.22851 a 0.93200818,0.93200818 0 0 0 0.33203,-0.91016 c -0.20927,-1.04637 -0.76411,-4.29123 -1.64062,-9.62304 l -0.002,-0.0117 c -0.76553,-5.07692 -1.67243,-8.93148 -2.73242,-11.79493 0.42203,0.039 0.80106,0.15718 1.23633,0.63086 0.49307,0.53659 1.00511,1.44589 1.45508,2.72657 a 0.93200818,0.93200818 0 0 0 0.008,0.0215 c 1.00137,2.64647 1.82956,5.70622 2.48047,9.17774 a 0.93200818,0.93200818 0 0 0 0.002,0.004 c 0.66372,3.46607 1.1314,5.51921 1.74414,6.64258 a 0.93200818,0.93200818 0 0 0 1.34766,0.32031 c 5.31695,-3.66438 11.38994,-6.28966 18.24414,-7.87695 a 0.93200818,0.93200818 0 0 0 0.002,-0.002 c 2.20319,-0.51408 3.66236,-0.87723 4.44922,-1.11329 a 0.93200818,0.93200818 0 0 0 0.60938,-0.57812 c 1.76887,-4.9381 2.6914,-8.19085 2.6914,-10.19922 0,-1.4002 -0.54174,-2.75496 -1.51562,-3.97656 -0.90897,-1.21029 -1.82977,-2.21198 -2.77539,-3 l 0.0625,0.0566 c -0.2924,-0.2924 -0.463,-0.48377 -0.63477,-0.67383 0.27533,-0.0729 0.64417,-0.15234 1.29492,-0.15234 z m -1.96875,22.21484 c -6.41071,1.49087 -13.12182,4.31458 -20.14258,8.45313 a 0.93200818,0.93200818 0 0 0 -0.42773,1.04687 c 1.28318,4.75532 3.76557,9.47705 7.41406,14.16797 a 0.93200818,0.93200818 0 0 0 1.46875,0.004 c 5.11121,-6.51864 9.36585,-13.99338 12.76367,-22.41407 a 0.93200818,0.93200818 0 0 0 -1.07617,-1.25781 z m -1.57226,2.47266 c -3.00243,7.0155 -6.59963,13.34485 -10.83789,18.9375 -2.89016,-3.92642 -4.93858,-7.82898 -6.08594,-11.70703 5.91138,-3.41786 11.53658,-5.75791 16.92383,-7.23047 z m -22.07422,9.08984 a 0.93200818,0.93200818 0 0 0 -0.85938,0.12891 c -7.33885,5.39181 -11.14453,11.93692 -11.14453,19.42383 0,2.88783 0.29851,5.09911 1.01367,6.71875 0.71517,1.61963 2.05573,2.66992 3.65235,2.66992 1.89135,0 3.9665,-1.08107 6.47461,-3.02344 2.50811,-1.94237 5.43871,-4.80471 8.83007,-8.60156 a 0.93200818,0.93200818 0 0 0 0.0625,-1.16211 c -3.45394,-4.82114 -5.92909,-9.98872 -7.4375,-15.51953 a 0.93200818,0.93200818 0 0 0 -0.59179,-0.63477 z m -0.70899,2.46289 c 1.51534,4.98374 3.76457,9.69804 6.82227,14.10156 -3.13439,3.46931 -5.87316,6.14301 -8.11719,7.88086 -2.3615,1.82884 -4.22302,2.63282 -5.33398,2.63282 -0.89311,0 -1.41757,-0.35898 -1.94727,-1.5586 -0.5297,-1.19962 -0.85547,-3.21613 -0.85547,-5.96679 0,-6.5089 3.14059,-12.13019 9.43164,-17.08985 z"
                 id="path70620" />
              <path
                 style="color:#000000;-inkscape-font-specification:'UnPen, Normal';fill:#000000;stroke:none;stroke-linejoin:miter;-inkscape-stroke:none;paint-order:stroke fill markers"
                 d="m 479.84586,239.00153 q 0,14.82853 -15.59742,23.8355 -10.4349,6.04125 -16.69583,6.04125 -0.76889,0 -0.76889,-0.87873 0,-0.5492 3.51491,-2.30666 4.50348,-2.19682 8.01839,-4.50348 3.51492,-2.30666 7.13967,-5.49205 3.62475,-3.29523 5.60189,-7.46919 1.97714,-4.17395 1.97714,-8.78728 0,-10.21521 -7.35935,-16.03678 -7.35935,-5.82158 -17.79424,-5.82158 -0.43937,0 -1.42793,0.10984 -0.87873,0 -1.3181,0 -5.93141,14.93838 -14.82853,26.36185 v -0.10985 l -0.21968,0.21969 q 1.09841,0.87872 2.85586,2.9657 1.8673,1.97714 1.8673,3.29523 0,2.96571 -2.74603,2.96571 -2.4165,0 -6.26093,-3.84443 -11.42347,12.08251 -17.79425,12.08251 -7.90855,0 -7.90855,-14.16949 0,-12.3022 13.29076,-22.95677 -0.32952,-1.64762 -1.64761,-9.66601 -1.20825,-8.01839 -2.85587,-12.19235 0,-0.76889 0.87873,-0.76889 2.30666,0 3.73459,4.06412 1.53778,4.06411 2.52635,9.33648 0.98857,5.16253 1.64761,6.37078 8.12824,-5.60189 18.56313,-8.01839 3.29523,-0.76889 4.39364,-1.09841 2.63619,-7.35935 2.63619,-9.88569 0,-1.75746 -1.3181,-3.40507 -1.31809,-1.75746 -2.63618,-2.85587 -1.20825,-1.20825 -1.20825,-1.42793 0,-0.98857 2.52634,-0.98857 2.85587,0 5.71173,2.96571 2.96571,2.9657 2.96571,5.82157 0,1.53777 -2.63618,9.44632 0.43936,0 1.20825,0 0.87873,-0.10984 1.31809,-0.10984 12.41203,0 21.52884,7.46919 9.1168,7.35935 9.1168,19.44186 z M 438.87517,218.0219 q -9.44633,2.19682 -19.88123,8.34791 1.8673,6.91999 7.24951,13.83997 7.57903,-9.66601 12.63172,-22.18788 z m -16.586,27.35041 q -5.27236,-7.35935 -7.57902,-15.81711 -10.76442,7.90856 -10.76442,18.67297 0,8.45776 3.73459,8.45776 4.50348,0 14.60885,-11.31362 z"
                 id="path70622" />
            </g>
            <g
               id="path70579">
              <path
                 style="color:#000000;-inkscape-font-specification:'UnPen, Normal';fill:#000000;stroke:none;stroke-linejoin:miter;-inkscape-stroke:none;paint-order:stroke fill markers"
                 d="m 545.74805,193.47461 c -1.16701,0 -2.3332,0.40672 -3.46875,1.13672 a 0.93200818,0.93200818 0 0 0 -0.0156,0.041 c -6.125,3.17942 -11.22962,4.75391 -15.18945,4.75391 -1.06214,0 -2.3238,-0.31751 -3.77344,-1.00781 -0.77076,-0.40265 -1.42794,-0.71653 -1.98047,-0.9336 -0.56179,-0.2207 -0.99377,-0.36523 -1.49414,-0.36523 -0.47818,0 -1.04432,0.24969 -1.33984,0.67187 -0.29553,0.42219 -0.36133,0.88257 -0.36133,1.35743 0,2.29497 0.65546,4.27742 1.99219,5.78125 a 0.93200818,0.93200818 0 0 0 0.0195,0.0215 c 1.42649,1.5104 3.41407,2.26953 5.73047,2.26953 0.78994,0 1.64016,-0.27804 2.82031,-0.7539 1.18015,-0.47587 2.64601,-1.17375 4.41992,-2.09766 a 0.93200818,0.93200818 0 0 0 0.006,-0.004 c 3.5209,-1.86823 6.28577,-2.74609 8.13086,-2.74609 0.22092,0 0.66818,0.25976 1.0332,0.41601 -5.05205,10.7363 -9.28412,18.63876 -12.56445,23.38477 a 0.93200818,0.93200818 0 0 0 -0.002,0.002 c -3.28692,4.78747 -9.06409,10.79886 -17.30664,17.94727 l 0.0176,-0.0137 c -1.808,1.49356 -2.86523,3.18017 -2.86523,5.00195 0,1.68998 0.30099,3.07371 1.06445,4.09961 0.76346,1.0259 2.00247,1.55469 3.38282,1.55469 1.46743,0 2.76626,-0.97577 4.01953,-2.54102 1.26441,-1.56191 2.6325,-3.41019 4.10742,-5.54883 1.51031,-2.08415 3.23879,-4.17257 5.1875,-6.26562 1.86617,-2.00441 4.45903,-3.73398 7.81055,-5.16016 a 0.93200818,0.93200818 0 0 0 0.0156,-0.006 c 3.30908,-1.47852 7.05188,-2.22656 11.26172,-2.22656 5.43448,0 9.37338,1.15078 11.92187,3.29688 2.5485,2.14609 3.84375,5.32992 3.84375,9.83203 0,3.49362 -0.92738,6.3726 -2.77343,8.76562 a 0.93200818,0.93200818 0 0 0 -0.01,0.0137 c -1.6656,2.24217 -4.12845,4.42657 -7.22265,6.54688 -3.93941,-7.69185 -9.38959,-11.86524 -16.19336,-11.86524 -4.26105,0 -7.58513,0.8376 -9.89063,2.67383 -2.3055,1.83624 -3.45312,4.6543 -3.45312,8.14453 0,3.53511 1.45962,6.39365 4.24218,8.19532 2.78257,1.80166 6.76717,2.62109 11.95703,2.62109 4.88403,0 9.66335,-0.97891 14.31055,-2.92773 4.67357,-1.95988 8.65029,-4.91543 11.89063,-8.83399 a 0.93200818,0.93200818 0 0 0 0.006,-0.006 c 3.26982,-4.03024 4.93164,-8.66198 4.93164,-13.76758 0,-6.1174 -1.87598,-10.90088 -5.66211,-14.0625 -3.78614,-3.16162 -9.34734,-4.66406 -16.58008,-4.66406 -4.94477,0 -10.0423,1.30247 -15.27734,3.81836 2.00675,-2.45004 4.23362,-5.43375 6.9375,-9.51172 a 0.93200818,0.93200818 0 0 0 0.002,-0.004 c 4.44548,-6.77753 8.09833,-11.38651 10.81836,-13.75782 a 0.93200818,0.93200818 0 0 0 0.004,-0.004 c 1.97419,-1.7464 3.17188,-3.16159 3.17188,-4.76368 0,-1.61355 -1.01209,-3.24743 -2.75,-5.21484 -1.67526,-2.05254 -3.19173,-3.29492 -4.88281,-3.29492 z m 0,1.86328 c 0.64743,0 1.91005,0.73167 3.45117,2.62305 a 0.93200818,0.93200818 0 0 0 0.0254,0.0273 c 1.62137,1.83286 2.29101,3.27101 2.29101,3.99609 0,0.44829 -0.70739,1.74514 -2.54101,3.36719 l 0.006,-0.004 c -2.9917,2.60814 -6.66409,7.29787 -11.15235,14.14062 -4.44687,6.70634 -7.92943,11.14638 -10.27148,13.21289 a 0.93200818,0.93200818 0 0 0 1.10352,1.49219 c 6.70228,-4.10785 13.04844,-6.12305 19.06445,-6.12305 6.97334,0 12.06786,1.46264 15.38476,4.23242 3.31691,2.76979 4.99219,6.88546 4.99219,12.63086 0,4.7045 -1.48512,8.85751 -4.50976,12.58789 -3.05686,3.696 -6.76808,6.45322 -11.17383,8.30079 -4.43298,1.85899 -8.95433,2.7832 -13.58985,2.7832 -4.98872,0 -8.63858,-0.8287 -10.94531,-2.32227 -2.30672,-1.49356 -3.39062,-3.57551 -3.39062,-6.63086 0,-3.10021 0.92011,-5.22655 2.75195,-6.68554 1.83184,-1.45899 4.71488,-2.26953 8.72852,-2.26953 6.35873,0 11.29211,3.75652 15.08398,11.76953 a 0.93200818,0.93200818 0 0 0 1.35156,0.38086 c 3.65235,-2.38521 6.481,-4.90168 8.47071,-7.57813 2.10463,-2.73159 3.15625,-6.07064 3.15625,-9.89648 0,-4.87099 -1.48908,-8.71737 -4.50586,-11.25782 -3.01678,-2.54044 -7.42698,-3.73437 -13.12305,-3.73437 -4.42479,0 -8.43728,0.78832 -12.00781,2.38086 -0.001,6.1e-4 -0.002,0.001 -0.004,0.002 -3.52985,1.5026 -6.35416,3.36165 -8.44141,5.60352 -2.00059,2.14879 -3.78124,4.30124 -5.34375,6.45898 a 0.93200818,0.93200818 0 0 0 -0.0137,0.0176 c -1.45417,2.10855 -2.79616,3.91997 -4.02148,5.43359 a 0.93200818,0.93200818 0 0 0 -0.002,0.004 c -1.08882,1.36101 -1.98695,1.84766 -2.56836,1.84766 -0.96293,0 -1.4805,-0.25621 -1.88868,-0.80469 -0.40817,-0.54849 -0.69336,-1.52753 -0.69336,-2.98633 10e-6,-1.10731 0.62706,-2.27539 2.1875,-3.56445 a 0.93200818,0.93200818 0 0 0 0.0156,-0.0156 c 8.30519,-7.20273 14.17083,-13.27246 17.62109,-18.29687 l 0.002,-0.004 c 3.50188,-5.06725 7.86445,-13.21796 13.14648,-24.51562 a 0.93200818,0.93200818 0 0 0 -0.32617,-1.17188 c -0.9682,-0.64546 -1.88905,-1.03515 -2.82422,-1.03516 -2.40209,0 -5.34853,1.02526 -9.00391,2.96485 -1.73791,0.90498 -3.16152,1.58063 -4.25,2.01953 -1.08989,0.43947 -1.88781,0.61914 -2.12304,0.61914 -1.92543,0 -3.30319,-0.5582 -4.36524,-1.67773 -1.00038,-1.13087 -1.51367,-2.5851 -1.51367,-4.53125 0,-0.10265 2.1e-4,-0.0649 0.01,-0.11524 0.111,0.021 0.27531,0.044 0.64062,0.1875 0.46339,0.18205 1.08004,0.47041 1.83008,0.86328 a 0.93200818,0.93200818 0 0 0 0.0312,0.0156 c 1.6259,0.77424 3.14663,1.18945 4.57422,1.18945 4.48819,0 9.87621,-1.7137 16.25,-5.04883 a 0.93200818,0.93200818 0 0 0 0.0566,-0.0742 c 0.87243,-0.54132 1.6583,-0.80859 2.36719,-0.80859 z m -10.54493,58 c -2.53416,0 -4.55338,0.46658 -6,1.5625 -1.44661,1.09592 -2.18164,2.82563 -2.18164,4.86133 0,2.22478 1.14328,4.08799 3.14844,5.18359 2.00517,1.09561 4.80112,1.57031 8.4375,1.57031 3.03005,0 5.82536,-0.49512 8.36133,-1.49414 a 0.93200818,0.93200818 0 0 0 0.49219,-1.2832 c -0.94792,-1.89585 -1.62749,-3.15366 -2.12305,-3.90234 -0.42365,-0.758 -1.1295,-1.71134 -2.15625,-2.95899 -1.02949,-1.34215 -2.2277,-2.31025 -3.58789,-2.82031 -1.29715,-0.48643 -2.7641,-0.71875 -4.39063,-0.71875 z m 0,1.86328 c 1.44902,0 2.6902,0.20731 3.73633,0.59961 0.9784,0.3669 1.90142,1.08036 2.77344,2.2207 a 0.93200818,0.93200818 0 0 0 0.0195,0.0254 c 1.00849,1.2246 1.6844,2.16279 1.99219,2.7168 a 0.93200818,0.93200818 0 0 0 0.0391,0.0645 c 0.28036,0.42053 0.8954,1.60339 1.49024,2.74805 -2.03388,0.66783 -4.21908,1.07422 -6.64649,1.07422 -3.46665,0 -5.99661,-0.49493 -7.54297,-1.33984 -1.54635,-0.84492 -2.17968,-1.89257 -2.17968,-3.54883 0,-1.62566 0.47347,-2.64219 1.44335,-3.37695 0.96989,-0.73477 2.57617,-1.1836 4.875,-1.1836 z"
                 id="path70626" />
              <path
                 style="color:#000000;-inkscape-font-specification:'UnPen, Normal';fill:#000000;stroke:none;stroke-linejoin:miter;-inkscape-stroke:none;paint-order:stroke fill markers"
                 d="m 569.03428,244.93294 q 0,7.35935 -4.72316,13.18092 -4.72316,5.71174 -11.53331,8.5676 -6.81014,2.85587 -13.9498,2.85587 -15.2679,0 -15.2679,-9.88569 0,-9.88569 12.41203,-9.88569 10.10537,0 15.92695,12.30219 5.38221,-3.51491 8.23807,-7.35935 2.96571,-3.84443 2.96571,-9.33648 0,-14.05965 -16.69583,-14.05965 -6.48062,0 -11.64315,2.30666 -5.16253,2.19682 -8.12823,5.38221 -2.96571,3.18539 -5.27237,6.37078 -2.19682,3.18539 -4.06412,5.49205 -1.75746,2.19682 -3.29523,2.19682 -3.51491,0 -3.51491,-4.72317 0,-2.19682 2.52634,-4.28379 12.41203,-10.76442 17.46472,-18.12377 5.16253,-7.46919 13.07108,-24.3847 -1.31809,-0.87873 -2.30666,-0.87873 -3.18539,0 -8.5676,2.85587 -5.27237,2.74602 -6.81014,2.74602 -3.18539,0 -5.05269,-1.97714 -1.75745,-1.97714 -1.75745,-5.16252 0,-1.09841 0.76888,-1.09841 0.76889,0 3.07555,1.20825 2.30666,1.09841 4.17396,1.09841 6.37078,0 15.8171,-4.94285 h -0.10984 q 1.53778,-0.98857 2.96571,-0.98857 1.75746,0 4.17396,2.96571 2.52634,2.85587 2.52634,4.61332 0,1.53778 -2.85586,4.06412 -4.2838,3.73459 -10.98411,13.94981 -6.7003,10.10537 -10.43489,13.4006 10.21521,-6.26094 19.5517,-6.26094 21.30915,0 21.30915,17.79424 z m -22.40756,19.22218 q -1.42793,-2.85587 -2.08698,-3.84444 -0.54921,-0.98856 -2.08698,-2.85586 -1.42793,-1.8673 -3.18539,-2.52634 -1.75746,-0.65905 -4.06412,-0.65905 -7.2495,0 -7.2495,5.49205 0,5.82157 10.65457,5.82157 4.39364,0 8.0184,-1.42793 z"
                 id="path70628" />
            </g>
          </g>
          <text
             xml:space="preserve"
             transform="matrix(0.22854815,0,0,0.24052807,7.6335126,94.572283)"
             id="text39211"
             style="fill:black;fill-opacity:1;stroke:none;font-family:sans-serif;font-style:normal;font-weight:normal;font-size:40px;line-height:1.25;letter-spacing:0px;word-spacing:0px;white-space:pre;shape-inside:url(#rect39213)" />
          <text
             xml:space="preserve"
             style="font-style:normal;font-weight:normal;font-size:9.85822px;line-height:1.25;font-family:sans-serif;letter-spacing:0px;word-spacing:0px;fill:#000000;fill-opacity:1;stroke:#000000;stroke-width:0.423582;stroke-miterlimit:4;stroke-dasharray:none;stroke-opacity:1"
             x="13.995891"
             y="185.23692"
             id="text39505"
             transform="scale(0.97477857,1.025874)"><tspan
               sodipodi:role="line"
               id="tspan39503"
               style="font-style:normal;font-variant:normal;font-weight:normal;font-stretch:normal;font-size:31.5463px;font-family:'EB Garamond';-inkscape-font-specification:'EB Garamond, Normal';font-variant-ligatures:normal;font-variant-caps:normal;font-variant-numeric:normal;font-variant-east-asian:normal;fill:#000000;fill-opacity:1;stroke:#000000;stroke-width:0.423582;stroke-miterlimit:4;stroke-dasharray:none;stroke-opacity:1"
               x="13.995891"
               y="185.23692">Mastodon</tspan></text>
        </g>
        <flowRoot
           xml:space="preserve"
           id="flowRoot3785"
           style="font-style:normal;font-variant:normal;font-weight:normal;font-stretch:normal;font-size:40px;line-height:1.25;font-family:'EB Garamond';-inkscape-font-specification:'EB Garamond, Normal';font-variant-ligatures:normal;font-variant-caps:normal;font-variant-numeric:normal;font-feature-settings:normal;text-align:center;letter-spacing:0px;word-spacing:0px;writing-mode:lr-tb;text-anchor:middle;fill:#000000;fill-opacity:1;stroke:none"
           transform="matrix(0.19446093,0,0,0.19446093,1.3023414,70.199641)"><flowRegion
             id="flowRegion3787"
             style="font-style:normal;font-variant:normal;font-weight:normal;font-stretch:normal;font-size:40px;font-family:'EB Garamond';-inkscape-font-specification:'EB Garamond, Normal';font-variant-ligatures:normal;font-variant-caps:normal;font-variant-numeric:normal;font-feature-settings:normal;text-align:center;letter-spacing:0px;writing-mode:lr-tb;text-anchor:middle"><rect
               id="rect3789"
               width="760.24683"
               height="86.144569"
               x="-6.9209394"
               y="1015.8077"
               style="font-style:normal;font-variant:normal;font-weight:normal;font-stretch:normal;font-size:40px;font-family:'EB Garamond';-inkscape-font-specification:'EB Garamond, Normal';font-variant-ligatures:normal;font-variant-caps:normal;font-variant-numeric:normal;font-feature-settings:normal;text-align:center;letter-spacing:0px;writing-mode:lr-tb;text-anchor:middle" /></flowRegion><flowPara
             id="flowPara3791"
             style="font-style:normal;font-variant:normal;font-weight:bold;font-stretch:normal;font-size:40px;font-family:UnYetgul;-inkscape-font-specification:'UnYetgul, Bold';font-variant-ligatures:normal;font-variant-caps:normal;font-variant-numeric:normal;font-feature-settings:normal;text-align:center;writing-mode:lr-tb;text-anchor:middle">NP-complete</flowPara></flowRoot>
        <text
           xml:space="preserve"
           style="font-style:normal;font-weight:normal;font-size:10.5833px;line-height:1.25;font-family:sans-serif;letter-spacing:0px;word-spacing:0px;fill:#000000;fill-opacity:1;stroke:none;stroke-width:0.264583"
           x="142.45467"
           y="179.93594"
           id="text3824" />
      </g>
    </g>
  </g>
</svg>
